<svg width="27" height="30" viewBox="0 0 27 30" fill="none" xmlns="http://www.w3.org/2000/svg">
    <g clip-path="url(#clip0_81_511)">
        <path
            d="M21.407 18.6131H12.1167C11.6179 18.6131 11.213 18.2082 11.213 17.7094C11.213 17.2105 11.6179 16.8057 12.1167 16.8057H21.407C23.1927 16.8057 24.6459 15.3525 24.6459 13.5667V7.3238H6.42325C5.9244 7.3238 5.51953 6.91894 5.51953 6.42008C5.51953 5.92123 5.9244 5.51636 6.42325 5.51636H25.5497C26.0485 5.51636 26.4534 5.92123 26.4534 6.42008V13.5667C26.4534 16.3502 24.1905 18.6131 21.407 18.6131Z"
            fill="black" />
        <path
            d="M24.3933 23.8113H11.6038C8.24919 23.8113 5.51994 21.0821 5.51994 17.7274V6.42367C5.51994 3.87878 3.44861 1.80745 0.903723 1.80745C0.404868 1.80745 0 1.40258 0 0.903723C0 0.404868 0.404868 0 0.903723 0C4.44632 0 7.32739 2.88107 7.32739 6.42367V17.7274C7.32739 20.0843 9.2469 22.0039 11.6038 22.0039H24.3933C24.8922 22.0039 25.297 22.4087 25.297 22.9076C25.297 23.4064 24.8922 23.8113 24.3933 23.8113Z"
            fill="black" />
        <path
            d="M10.5337 29.9999C9.12024 29.9999 7.9707 28.8504 7.9707 27.437C7.9707 26.0236 9.12024 24.874 10.5337 24.874C11.9471 24.874 13.0966 26.0236 13.0966 27.437C13.0966 28.8504 11.9471 29.9999 10.5337 29.9999ZM10.5337 26.6815C10.1179 26.6815 9.77815 27.0213 9.77815 27.437C9.77815 27.8527 10.1179 28.1925 10.5337 28.1925C10.9494 28.1925 11.2892 27.8527 11.2892 27.437C11.2892 27.0213 10.9494 26.6815 10.5337 26.6815Z"
            fill="black" />
        <path
            d="M21.3247 29.9999C19.9113 29.9999 18.7617 28.8504 18.7617 27.437C18.7617 26.0236 19.9113 24.874 21.3247 24.874C22.7381 24.874 23.8876 26.0236 23.8876 27.437C23.8876 28.8504 22.7381 29.9999 21.3247 29.9999ZM21.3247 26.6815C20.909 26.6815 20.5692 27.0213 20.5692 27.437C20.5692 27.8527 20.909 28.1925 21.3247 28.1925C21.7404 28.1925 22.0802 27.8527 22.0802 27.437C22.0802 27.0213 21.7404 26.6815 21.3247 26.6815Z"
            fill="black" />
    </g>
    <defs>
        <clipPath id="clip0_81_511">
            <rect width="26.4538" height="30" fill="white" />
        </clipPath>
    </defs>
</svg>
    