<svg width="73" height="73" viewBox="0 0 73 73" fill="none" xmlns="http://www.w3.org/2000/svg">
<path d="M70.4004 72.2998H17.9004C8.50039 72.2998 0.900391 64.6998 0.900391 55.2998V17.2998C0.900391 7.89981 8.50039 0.299805 17.9004 0.299805H55.8004C65.2004 0.299805 72.8004 7.89981 72.8004 17.2998V69.6998C72.9004 71.0998 71.7004 72.2998 70.4004 72.2998ZM17.9004 5.2998C11.3004 5.2998 5.90039 10.6998 5.90039 17.2998V55.1998C5.90039 61.7998 11.3004 67.1998 17.9004 67.1998H67.8004V17.2998C67.8004 10.6998 62.4004 5.2998 55.8004 5.2998H17.9004Z" fill="#979797"/>
<path d="M36.0006 26.8999H24.6006C23.2006 26.8999 22.1006 25.7999 22.1006 24.3999C22.1006 22.9999 23.2006 21.8999 24.6006 21.8999H36.0006C37.4006 21.8999 38.5006 22.9999 38.5006 24.3999C38.5006 25.7999 37.4006 26.8999 36.0006 26.8999Z" fill="#979797"/>
<path d="M49.1006 38.7998H24.6006C23.2006 38.7998 22.1006 37.6998 22.1006 36.2998C22.1006 34.8998 23.2006 33.7998 24.6006 33.7998H49.1006C50.5006 33.7998 51.6006 34.8998 51.6006 36.2998C51.6006 37.6998 50.5006 38.7998 49.1006 38.7998Z" fill="#979797"/>
<path d="M49.1006 50.6997H24.6006C23.2006 50.6997 22.1006 49.5997 22.1006 48.1997C22.1006 46.7997 23.2006 45.6997 24.6006 45.6997H49.1006C50.5006 45.6997 51.6006 46.7997 51.6006 48.1997C51.6006 49.5997 50.5006 50.6997 49.1006 50.6997Z" fill="#979797"/>
</svg>
