<svg width="81" height="72" viewBox="0 0 81 72" fill="none" xmlns="http://www.w3.org/2000/svg">
<g clip-path="url(#clip0_138_2090)">
<path d="M40.2671 56.9134C38.6852 56.9134 37.2003 56.3001 36.0919 55.181L24.0614 43.1612C23.0069 42.1067 23.0069 40.4065 24.0614 39.3519C25.116 38.2974 26.8162 38.2974 27.8707 39.3519L39.9012 51.3824C40.1595 51.6407 40.3962 51.6407 40.6545 51.3824L52.6849 39.3519C53.7395 38.2974 55.4397 38.2974 56.4942 39.3519C57.5488 40.4065 57.5488 42.1067 56.4942 43.1612L44.4638 55.1917C43.3446 56.3108 41.8597 56.9242 40.2886 56.9242L40.2671 56.9134Z" fill="#979797"/>
<path d="M40.2664 56.9135C38.7814 56.9135 37.5762 55.7083 37.5762 54.2233V2.69018C37.5762 1.2052 38.7814 0 40.2664 0C41.7513 0 42.9565 1.2052 42.9565 2.69018V54.2233C42.9565 55.7083 41.7513 56.9135 40.2664 56.9135Z" fill="#979797"/>
<path d="M68.4705 71.9998H12.0628C5.41264 71.9998 0 66.5871 0 59.937V49.865C0 48.38 1.2052 47.1748 2.69018 47.1748C4.17516 47.1748 5.38036 48.38 5.38036 49.865V59.937C5.38036 63.6279 8.3826 66.6194 12.0628 66.6194H68.4705C72.1614 66.6194 75.1529 63.6172 75.1529 59.937V49.865C75.1529 48.38 76.3581 47.1748 77.8431 47.1748C79.328 47.1748 80.5332 48.38 80.5332 49.865V59.937C80.5332 66.5871 75.1206 71.9998 68.4705 71.9998Z" fill="#979797"/>
</g>
<defs>
<clipPath id="clip0_138_2090">
<rect width="80.5332" height="72" fill="white"/>
</clipPath>
</defs>
</svg>
