<svg width="27" height="24" viewBox="0 0 27 24" fill="none" xmlns="http://www.w3.org/2000/svg">
<g clip-path="url(#clip0_81_266)">
<path d="M13.4224 18.971C12.8951 18.971 12.4001 18.7665 12.0306 18.3935L8.02047 14.3869C7.66896 14.0354 7.66896 13.4687 8.02047 13.1172C8.37199 12.7656 8.93872 12.7656 9.29024 13.1172L13.3004 17.1273C13.3865 17.2134 13.4654 17.2134 13.5515 17.1273L17.5616 13.1172C17.9132 12.7656 18.4799 12.7656 18.8314 13.1172C19.1829 13.4687 19.1829 14.0354 18.8314 14.3869L14.8213 18.3971C14.4482 18.7701 13.9532 18.9746 13.4295 18.9746L13.4224 18.971Z" fill="black"/>
<path d="M13.4221 18.9712C12.9271 18.9712 12.5254 18.5694 12.5254 18.0744V0.896727C12.5254 0.401734 12.9271 0 13.4221 0C13.9171 0 14.3188 0.401734 14.3188 0.896727V18.0744C14.3188 18.5694 13.9171 18.9712 13.4221 18.9712Z" fill="black"/>
<path d="M22.8235 24.0001H4.02092C1.80421 24.0001 0 22.1959 0 19.9792V16.6218C0 16.1268 0.401734 15.7251 0.896727 15.7251C1.39172 15.7251 1.79345 16.1268 1.79345 16.6218V19.9792C1.79345 21.2095 2.7942 22.2066 4.02092 22.2066H22.8235C24.0538 22.2066 25.051 21.2059 25.051 19.9792V16.6218C25.051 16.1268 25.4527 15.7251 25.9477 15.7251C26.4427 15.7251 26.8444 16.1268 26.8444 16.6218V19.9792C26.8444 22.1959 25.0402 24.0001 22.8235 24.0001Z" fill="black"/>
</g>
<defs>
<clipPath id="clip0_81_266">
<rect width="26.8444" height="24" fill="white"/>
</clipPath>
</defs>
</svg>
