<svg width="72" height="76" viewBox="0 0 72 76" fill="none" xmlns="http://www.w3.org/2000/svg">
<path d="M58.5004 75.8998H13.7004C6.60039 75.8998 0.900391 70.0998 0.900391 63.0998V32.1998C0.900391 29.1998 2.20039 26.3998 4.50039 24.3998L29.5004 3.1998C33.3004 -0.000195265 38.8004 -0.000195265 42.6004 3.1998L67.6004 24.3998C69.9004 26.2998 71.2004 29.1998 71.2004 32.1998V63.0998C71.3004 70.1998 65.6004 75.8998 58.5004 75.8998ZM36.1004 5.7998C34.9004 5.7998 33.7004 6.1998 32.8004 6.9998L7.80039 28.1998C6.60039 29.1998 6.00039 30.5998 6.00039 32.0998V62.9998C6.00039 67.2998 9.50039 70.7998 13.8004 70.7998H58.6004C62.9004 70.7998 66.4004 67.2998 66.4004 62.9998V32.1998C66.4004 30.6998 65.7004 29.1998 64.6004 28.2998L39.4004 6.9998C38.5004 6.1998 37.3004 5.7998 36.1004 5.7998Z" fill="#F4B223"/>
<path d="M45.5002 57.6998H26.7002C25.3002 57.6998 24.2002 56.5998 24.2002 55.1998V36.2998C24.2002 34.8998 25.3002 33.7998 26.7002 33.7998H45.6002C47.0002 33.7998 48.1002 34.8998 48.1002 36.2998V55.1998C48.0002 56.5998 46.9002 57.6998 45.5002 57.6998ZM29.2002 52.6998H43.0002V38.7998H29.2002V52.6998Z" fill="#F4B223"/>
</svg>
