<svg width="65" height="54" viewBox="0 0 65 54" fill="none" xmlns="http://www.w3.org/2000/svg">
<path d="M61.6998 5.2998H15.2998C13.8998 5.2998 12.7998 4.1998 12.7998 2.7998C12.7998 1.3998 13.8998 0.299805 15.2998 0.299805H61.6998C63.0998 0.299805 64.1998 1.3998 64.1998 2.7998C64.1998 4.1998 63.0998 5.2998 61.6998 5.2998Z" fill="#F4B223"/>
<path d="M2.5 5.30018C2.3 5.30018 2.2 5.30018 2 5.30018C1.8 5.30018 1.7 5.20018 1.5 5.20018C1.3 5.20018 1.2 5.10018 1.1 5.00018C1 4.90018 0.800001 4.80018 0.700001 4.70018C0.200001 4.20018 0 3.60018 0 2.90018C0 2.20018 0.300001 1.60018 0.700001 1.10018C0.800001 1.00018 0.9 0.90018 1.1 0.80018C1.2 0.70018 1.4 0.600181 1.5 0.600181C1.6 0.600181 1.8 0.500181 2 0.500181C2.8 0.300181 3.7 0.600182 4.3 1.20018C4.8 1.70018 5 2.30018 5 3.00018C5 3.70018 4.7 4.30018 4.3 4.80018C3.8 5.00018 3.2 5.30018 2.5 5.30018Z" fill="#F4B223"/>
<path d="M61.6998 29.5H15.2998C13.8998 29.5 12.7998 28.4 12.7998 27C12.7998 25.6 13.8998 24.5 15.2998 24.5H61.6998C63.0998 24.5 64.1998 25.6 64.1998 27C64.1998 28.4 63.0998 29.5 61.6998 29.5Z" fill="#F4B223"/>
<path d="M2.5 29.5004C1.8 29.5004 1.2 29.2004 0.700001 28.8004C0.300001 28.3004 0 27.7004 0 27.0004C0 26.8004 0 26.7004 0 26.5004C0 26.3004 0.1 26.2004 0.1 26.0004C0.2 25.9004 0.199999 25.7004 0.299999 25.6004C0.399999 25.5004 0.5 25.3004 0.6 25.2004C1.5 24.3004 3.2 24.3004 4.1 25.2004C4.2 25.3004 4.3 25.4004 4.4 25.6004C4.5 25.7004 4.6 25.9004 4.6 26.0004C4.7 26.2004 4.7 26.3004 4.7 26.5004C4.7 26.7004 4.7 26.8004 4.7 27.0004C4.7 27.7004 4.4 28.3004 4 28.8004C3.8 29.2004 3.2 29.5004 2.5 29.5004Z" fill="#F4B223"/>
<path d="M61.6998 53.7998H15.2998C13.8998 53.7998 12.7998 52.6998 12.7998 51.2998C12.7998 49.8998 13.8998 48.7998 15.2998 48.7998H61.6998C63.0998 48.7998 64.1998 49.8998 64.1998 51.2998C64.1998 52.6998 63.0998 53.7998 61.6998 53.7998Z" fill="#F4B223"/>
<path d="M2.5 53.7996C1.8 53.7996 1.2 53.4996 0.700001 53.0996C0.200001 52.5996 0 51.9996 0 51.2996C0 51.0996 0 50.9996 0 50.7996C0 50.5996 0.1 50.4996 0.1 50.2996C0.1 50.0996 0.199999 49.9996 0.299999 49.8996C0.399999 49.7996 0.5 49.5996 0.6 49.4996C0.7 49.3996 0.8 49.2996 1 49.1996C1.1 49.0996 1.3 48.9996 1.4 48.9996C1.5 48.9996 1.7 48.8996 1.9 48.8996C2.7 48.6996 3.6 48.9996 4.2 49.5996C4.3 49.6996 4.4 49.7996 4.5 49.9996C4.6 50.0996 4.7 50.2996 4.7 50.3996C4.7 50.4996 4.8 50.6996 4.8 50.8996C4.8 51.0996 4.8 51.1996 4.8 51.3996C4.8 52.0996 4.5 52.6996 4.1 53.1996C3.8 53.4996 3.2 53.7996 2.5 53.7996Z" fill="#F4B223"/>
</svg>
