<svg width="26" height="20" viewBox="0 0 26 20" fill="none" xmlns="http://www.w3.org/2000/svg">
    <g clip-path="url(#clip0_64_92)">
        <path
            d="M23.8246 20H1.87351C0.841289 20 0 19.1587 0 18.1265V1.87351C0 0.841289 0.841289 0 1.87351 0H23.8246C24.8568 0 25.6981 0.841289 25.6981 1.87351V18.1265C25.6981 19.1587 24.8568 20 23.8246 20ZM1.87351 1.49165C1.66169 1.49165 1.49165 1.66169 1.49165 1.87351V18.1265C1.49165 18.3383 1.66169 18.5084 1.87351 18.5084H23.8246C24.0364 18.5084 24.2064 18.3383 24.2064 18.1265V1.87351C24.2064 1.66169 24.0364 1.49165 23.8246 1.49165H1.87351Z"
            fill="#F4B221" />
        <path
            d="M12.849 11.083C12.0704 11.083 11.2917 10.8085 10.6593 10.2596L1.09483 2.01378C0.781589 1.74529 0.748773 1.27393 1.01727 0.96068C1.28577 0.647434 1.75713 0.614618 2.07037 0.883114L11.6378 9.12894C12.3389 9.73753 13.3592 9.74051 14.0632 9.1349L23.6366 0.892064C23.9498 0.623568 24.4212 0.659367 24.6897 0.96963C24.9582 1.28288 24.9224 1.75125 24.6121 2.02273L15.0328 10.2686C14.4003 10.8115 13.6247 11.083 12.852 11.083H12.849Z"
            fill="#F4B221" />
    </g>
    <defs>
        <clipPath id="clip0_64_92">
            <rect width="25.6981" height="20" fill="white" />
        </clipPath>
    </defs>
</svg>
    