<svg width="41" height="40" viewBox="0 0 41 40" fill="none" xmlns="http://www.w3.org/2000/svg">
<g clip-path="url(#clip0_105_4633)">
<path d="M38.7556 16.6889C37.5778 15.2667 35.8667 14.4444 34.0222 14.4444H25.8889L27.6667 7.82222C28.1778 5.93333 27.7778 3.97778 26.6 2.42222C25.4222 0.888889 23.6222 0 21.6667 0C21.1111 0 20.6 0.266667 20.2889 0.711111L10.7778 14.4444H1.66667C0.755556 14.4444 0 15.2 0 16.1111V38.3333C0 39.2444 0.755556 40 1.66667 40H11.6667C11.6667 40 11.8 40 11.8667 39.9778C11.9111 40 11.9778 40 12.0444 40H31.3556C34.2667 40 36.7778 37.9333 37.3556 35.0889L40.0222 21.7556C40.3778 19.9556 39.9111 18.1111 38.7556 16.6889Z" fill="#F4B221"/>
<path d="M10.0002 17.7773H3.3335V36.6662H10.0002V17.7773Z" fill="white"/>
<path d="M36.7557 21.111L34.0891 34.4443C33.8224 35.7332 32.6668 36.6666 31.3557 36.6666H13.3335V16.6443L22.4668 3.44434C23.0446 3.59989 23.5779 3.95545 23.9557 4.46656C24.5113 5.17767 24.6891 6.06656 24.4446 6.95545L22.0891 15.6888C21.9557 16.1777 22.0668 16.711 22.3779 17.1332C22.6891 17.5332 23.1779 17.7777 23.7113 17.7777H34.0224C34.8668 17.7777 35.6446 18.1554 36.1779 18.7999C36.6891 19.4443 36.9113 20.2888 36.7557 21.111Z" fill="#F4B221"/>
</g>
<defs>
<clipPath id="clip0_105_4633">
<rect width="40.1333" height="40" fill="white"/>
</clipPath>
</defs>
</svg>
