<svg width="148" height="50" viewBox="0 0 148 50" fill="none" xmlns="http://www.w3.org/2000/svg">
    <g clip-path="url(#clip0_81_35)">
        <path
            d="M64.1925 21.9411H53.2979V21.3502C54.9864 21.3502 55.211 20.8535 55.211 19.1527V8.98959C55.211 7.28879 54.9864 6.79215 53.2979 6.79215V6.20117H59.6V6.79215C57.9115 6.79215 57.6869 7.28879 57.6869 8.98959V19.1527C57.6869 20.4762 57.8666 20.8535 59.1957 20.8535H60.8605C62.7075 20.8535 63.3153 20.0017 63.6746 18.2066H64.3273L64.1925 21.9411Z"
            fill="#2D2A26" />
        <path
            d="M65.8125 21.941V21.4221C67.2764 21.4221 67.501 20.809 67.501 19.3662V13.8116C67.501 12.5103 67.0518 11.9193 65.8125 11.9193V11.4005L69.7735 10.8345V19.3662C69.7735 20.809 69.9981 21.4221 71.462 21.4221V21.941H65.8125ZM68.6716 8.91729C67.8604 8.91729 67.2764 8.25417 67.2764 7.42736C67.2764 6.60055 67.8842 5.9624 68.6716 5.9624C69.459 5.9624 70.0906 6.60055 70.0906 7.42736C70.0906 8.25417 69.459 8.91729 68.6716 8.91729Z"
            fill="#2D2A26" />
        <path
            d="M79.6345 14.5414C77.6078 14.5414 79.1404 11.6337 77.1797 11.6337C75.3776 11.6337 75.2217 14.1391 75.2217 15.5098C75.2217 17.993 76.0778 21.1115 78.9369 21.1115C79.6134 21.1115 80.2872 20.97 80.9399 20.7564V21.6082C80.0837 22.0327 78.9819 22.177 78.0597 22.177C74.2995 22.177 72.7695 19.7187 72.7695 16.0064C72.7695 12.885 74.2546 10.8291 77.3621 10.8291C78.6912 10.8291 81.0086 11.5144 81.0086 13.2624C81.0086 14.0892 80.3771 14.5387 79.6345 14.5387V14.5414Z"
            fill="#2D2A26" />
        <path
            d="M84.793 15.2987C84.793 18.0178 85.8288 21.1141 88.8914 21.1141C89.589 21.1141 90.3104 20.9726 90.963 20.7118V21.5636C89.9721 21.9659 88.9152 22.1796 87.8556 22.1796C84.209 22.1796 82.3408 19.8628 82.3408 16.1283C82.3408 12.8432 83.7809 10.8345 87.047 10.8345C89.8823 10.8345 91.1665 12.4409 91.1665 15.3015H84.7956L84.793 15.2987ZM86.9545 11.6363C85.5355 11.6363 84.793 12.9598 84.793 14.3304H88.8914C88.8914 12.9126 88.5532 11.6363 86.9545 11.6363Z"
            fill="#2D2A26" />
        <path
            d="M100.169 22.1766V19.3882H100.124C99.4025 20.831 98.4142 22.1766 96.7019 22.1766C94.5404 22.1766 93.708 21.2555 93.708 19.0331V13.8086C93.708 12.5074 93.2588 11.9164 92.0195 11.9164V11.3975L95.9805 10.8315V17.1187C95.9805 17.6874 95.9805 18.2534 96.0492 18.7972C96.184 19.9542 96.4773 20.7367 97.6928 20.7367C99.0219 20.7367 100.169 17.9954 100.169 16.8135V13.8114C100.169 12.5101 99.7195 11.9192 98.4803 11.9192V11.4003L102.441 10.8343V19.2023C102.441 20.5008 102.89 21.0946 104.13 21.0946V21.6134L100.169 22.1822V22.1766Z"
            fill="#2D2A26" />
        <path
            d="M64.1925 43.6159H53.2979V43.025C54.9864 43.025 55.211 42.5283 55.211 40.8275V30.6644C55.211 28.9636 54.9864 28.467 53.2979 28.467V27.876H59.6V28.467C57.9115 28.467 57.6869 28.9636 57.6869 30.6644V40.8275C57.6869 42.151 57.8666 42.5283 59.1957 42.5283H60.8605C62.7075 42.5283 63.3153 41.6765 63.6746 39.8814H64.3273L64.1925 43.6159Z"
            fill="#2D2A26" />
        <path
            d="M65.8125 43.6158V43.0969C67.2764 43.0969 67.501 42.4838 67.501 41.041V35.4864C67.501 34.1851 67.0518 33.5941 65.8125 33.5941V33.0753L69.7735 32.5093V41.041C69.7735 42.4838 69.9981 43.0969 71.462 43.0969V43.6158H65.8125ZM68.6716 30.5921C67.8604 30.5921 67.2764 29.929 67.2764 29.1022C67.2764 28.2754 67.8842 27.6372 68.6716 27.6372C69.459 27.6372 70.0906 28.2754 70.0906 29.1022C70.0906 29.929 69.459 30.5921 68.6716 30.5921Z"
            fill="#2D2A26" />
        <path
            d="M78.3979 43.8519C77.1374 43.8519 76.3262 43.2137 75.5176 42.2926L74.0775 43.616H73.3799V30.1651C73.3799 28.8888 72.9307 28.2506 71.6914 28.2728V27.754L75.6524 27.188V34.2325H75.6973C76.3051 33.0256 77.1612 32.5068 78.4666 32.5068C81.6401 32.5068 82.4513 35.3424 82.4513 38.1557C82.4513 40.9691 81.619 43.8519 78.4005 43.8519H78.3979ZM77.8139 33.6416C75.6973 33.6416 75.6524 36.5493 75.6524 38.1557C75.6524 39.5513 75.766 42.5062 77.6553 42.5062C79.9305 42.5062 79.9965 39.9537 79.9965 38.1557C79.9965 36.6187 79.838 33.6416 77.8139 33.6416Z"
            fill="#2D2A26" />
        <path
            d="M86.8858 36.9735C86.8858 39.6926 87.9216 42.789 90.9842 42.789C91.6818 42.789 92.4031 42.6475 93.0558 42.3866V43.2384C92.0649 43.6407 91.0079 43.8544 89.9483 43.8544C86.3018 43.8544 84.4336 41.5376 84.4336 37.8031C84.4336 34.518 85.8737 32.5093 89.1397 32.5093C91.9751 32.5093 93.2593 34.1157 93.2593 36.9763H86.8884L86.8858 36.9735ZM89.0473 33.3111C87.6283 33.3111 86.8858 34.6346 86.8858 36.0052H90.9842C90.9842 34.5874 90.6459 33.3111 89.0473 33.3111Z"
            fill="#2D2A26" />
        <path
            d="M101.451 35.0589C100.663 35.0589 100.774 34.5151 100.055 34.5151C99.807 34.5151 99.5824 34.6816 99.4027 34.8703C98.5915 35.722 98.3458 37.2564 98.3458 38.3911V41.0381C98.3458 42.4559 98.5704 43.094 100.034 43.094V43.6128H94.3848V43.094C95.8487 43.094 96.0733 42.4559 96.0733 41.0381V35.4834C96.0733 34.1822 95.6241 33.5912 94.3848 33.5912V33.0724L98.3458 32.5063V35.2476H98.3907C98.9086 33.8048 99.8308 32.5063 101.453 32.5063C102.085 32.5063 102.669 33.0502 102.669 33.7355C102.669 34.4929 102.175 35.0589 101.453 35.0589H101.451Z"
            fill="#2D2A26" />
        <path
            d="M107.238 33.7109V40.7554C107.238 42.151 107.711 42.7891 109.061 42.7891C109.355 42.7891 109.624 42.742 109.894 42.6476V43.5938C109.489 43.7602 109.038 43.8546 108.609 43.8546C106.427 43.8546 104.963 43.3829 104.963 40.7582V33.7136H103.14V33.0505C105.55 33.0505 106.448 31.0417 106.585 28.8193H107.238V32.7425H110.166V33.7109H107.238Z"
            fill="#2D2A26" />
        <path
            d="M119.057 43.8516C117.955 43.8516 117.482 43.3328 117.279 42.2452C116.446 43.2135 115.5 43.8516 114.195 43.8516C112.755 43.8516 111.246 42.789 111.246 41.1576C111.246 38.1083 115.096 37.6838 117.258 37.5645V36.3826C117.258 35.1757 117.279 33.3084 115.704 33.3084C113.476 33.3084 115.006 36.144 112.958 36.144C112.261 36.144 111.674 35.7195 111.674 34.937C111.674 33.0226 114.42 32.5038 115.794 32.5038C118.494 32.5038 119.53 33.5442 119.53 36.3798V41.0827C119.53 41.8873 119.53 43.0443 120.542 43.0443C120.835 43.0443 121.15 42.925 121.419 42.8306V43.4216C120.608 43.7046 119.911 43.8461 119.054 43.8461L119.057 43.8516ZM117.255 38.4385C115.791 38.4857 113.698 38.863 113.698 40.8274C113.698 41.7485 114.171 42.506 115.117 42.506C116.626 42.506 117.255 41.2519 117.255 39.8119V38.4413V38.4385ZM117.683 28.3919L116.264 30.8502H115.318L115.836 28.2976C115.995 27.5179 116.061 26.7383 117.007 26.7383C117.48 26.7383 118.019 26.9269 118.019 27.5179C118.019 27.8259 117.839 28.1311 117.68 28.3919H117.683Z"
            fill="#2D2A26" />
        <path
            d="M129.008 35.0589C128.221 35.0589 128.332 34.5151 127.613 34.5151C127.365 34.5151 127.14 34.6816 126.96 34.8703C126.149 35.722 125.903 37.2564 125.903 38.3911V41.0381C125.903 42.4559 126.128 43.094 127.592 43.094V43.6128H121.942V43.094C123.406 43.094 123.631 42.4559 123.631 41.0381V35.4834C123.631 34.1822 123.182 33.5912 121.942 33.5912V33.0724L125.903 32.5063V35.2476H125.948C126.466 33.8048 127.388 32.5063 129.011 32.5063C129.642 32.5063 130.226 33.0502 130.226 33.7355C130.226 34.4929 129.732 35.0589 129.011 35.0589H129.008Z"
            fill="#2D2A26" />
        <path
            d="M130.922 43.6158V43.0969C132.386 43.0969 132.61 42.4838 132.61 41.041V35.4864C132.61 34.1851 132.161 33.5941 130.922 33.5941V33.0753L134.883 32.5093V41.041C134.883 42.4838 135.107 43.0969 136.571 43.0969V43.6158H130.922ZM133.781 30.5921C132.97 30.5921 132.386 29.929 132.386 29.1022C132.386 28.2754 132.994 27.6372 133.781 27.6372C134.568 27.6372 135.2 28.2754 135.2 29.1022C135.2 29.929 134.568 30.5921 133.781 30.5921Z"
            fill="#2D2A26" />
        <path
            d="M142.741 43.8518C139.205 43.8518 137.924 41.6765 137.924 38.1778C137.924 34.6791 139.208 32.5039 142.741 32.5039C146.274 32.5039 147.558 34.6791 147.558 38.1778C147.558 41.6765 146.274 43.8518 142.741 43.8518ZM142.741 33.3085C140.49 33.3085 140.376 36.477 140.376 38.1778C140.376 39.8786 140.49 43.0472 142.741 43.0472C144.992 43.0472 145.106 39.8786 145.106 38.1778C145.106 36.477 144.992 33.3085 142.741 33.3085Z"
            fill="#2D2A26" />
        <path
            d="M23.8082 49.9972C36.9571 49.9972 47.6164 38.805 47.6164 24.9986C47.6164 11.1923 36.9571 0 23.8082 0C10.6593 0 0 11.1923 0 24.9986C0 38.805 10.6593 49.9972 23.8082 49.9972Z"
            fill="#2D2A26" />
        <path
            d="M26.4135 28.8828H15.0088L15.1066 28.364C16.9325 28.364 17.4028 27.7147 17.749 25.9279L19.921 14.5745C19.995 14.211 20.069 13.8476 20.069 13.4869C20.069 12.2938 19.1072 12.1385 18.1929 12.1385L18.2907 11.6196H24.8571L24.7593 12.1385C22.9334 12.1385 22.4631 12.7877 22.1169 14.5745L19.9448 25.9279C19.8708 26.2914 19.7969 26.6549 19.7969 27.0156C19.7969 27.8979 20.7851 27.8701 21.4008 27.8701H23.0312C24.9575 27.8701 26.0171 27.0932 26.6117 25.1733H27.1296L26.4135 28.88V28.8828Z"
            fill="#F4B223" />
        <path
            d="M34.1138 21.3443C34.4361 21.7022 34.6 22.1655 34.6 22.7288C34.6 23.3697 34.3833 23.9551 33.9499 24.4878C33.5166 25.0205 32.922 25.4395 32.1637 25.7475C31.4079 26.0554 30.5703 26.208 29.656 26.208C29.2544 26.208 28.8078 26.1636 28.3189 26.0721L27.6425 27.1292C26.7388 28.5386 25.983 29.6818 25.3726 30.5613C24.7622 31.438 24.1228 32.251 23.4516 32.9918C24.3421 33.6188 25.1322 34.096 25.8219 34.4234C26.5115 34.7508 27.2223 34.9145 27.9543 34.9145C28.6017 34.9145 29.1566 34.7897 29.619 34.54C30.0814 34.2903 30.4249 33.9407 30.6443 33.4912C30.779 33.2221 30.9191 33.1055 31.0644 33.1444C31.1252 33.1583 31.178 33.1971 31.2203 33.2609C31.2626 33.3247 31.2837 33.408 31.2837 33.5106C31.2837 33.5994 31.2652 33.6965 31.2282 33.7992C30.9481 34.6315 30.4989 35.2641 29.8832 35.6914C29.2676 36.1215 28.5673 36.3351 27.7878 36.3351C26.9449 36.3351 26.1442 36.1131 25.3806 35.672C24.6169 35.2308 23.7291 34.5871 22.717 33.7409C21.2267 35.1504 19.7813 35.8551 18.3782 35.8551C17.6568 35.8551 17.012 35.7247 16.4386 35.4611C15.8652 35.1975 15.416 34.8341 15.0936 34.3652C14.7713 33.8963 14.6074 33.383 14.6074 32.817C14.6074 32.0346 14.8505 31.3936 15.3394 30.8942C15.8282 30.3948 16.4571 30.1451 17.2261 30.1451C18.106 30.1451 18.9383 30.3227 19.7258 30.675C20.5132 31.0274 21.3694 31.524 22.2969 32.165C22.7963 31.5879 23.2772 30.9858 23.7343 30.3587C24.1915 29.7317 24.8415 28.8078 25.6844 27.5897C25.917 27.2318 26.3609 26.577 27.0215 25.6281C26.4613 25.359 25.9804 25.015 25.584 24.5988C25.1877 24.1826 24.8864 23.7109 24.6777 23.1866C24.6407 23.0839 24.6222 23.0062 24.6222 22.9563C24.6222 22.8286 24.6645 22.7454 24.7517 22.7066L24.8257 22.6871C24.9604 22.6871 25.082 22.7953 25.193 23.0145C25.7056 23.9745 26.4375 24.6793 27.3888 25.1287C28.3903 23.7581 29.3257 22.6955 30.1977 21.938C31.0697 21.1833 31.947 20.8032 32.8243 20.8032C33.3607 20.8032 33.7914 20.9836 34.1138 21.3415V21.3443ZM21.6548 32.8586C20.8118 32.1677 20.0455 31.6378 19.3585 31.2716C18.6688 30.9053 17.958 30.725 17.2261 30.725C16.6024 30.725 16.103 30.9192 15.7252 31.3104C15.3473 31.7016 15.157 32.2038 15.157 32.8198C15.157 33.4357 15.4054 33.9213 15.8996 34.318C16.3937 34.7148 17.0252 34.9145 17.7942 34.9145C19.0018 34.9145 20.2886 34.2292 21.6574 32.8586H21.6548ZM33.72 21.7382C33.5007 21.5024 33.2021 21.3831 32.8216 21.3831C32.235 21.3831 31.6193 21.7327 30.9719 22.4319C30.3245 23.1311 29.5503 24.166 28.6466 25.5366C29.0139 25.6004 29.3495 25.6337 29.6534 25.6337C30.4831 25.6337 31.2335 25.5033 31.9047 25.2397C32.5759 24.9761 33.1017 24.6238 33.4796 24.1826C33.8574 23.7415 34.0477 23.2448 34.0477 22.6927C34.0477 22.2959 33.9367 21.9796 33.7174 21.741L33.72 21.7382Z"
            fill="#F4B223" />
        <path
            d="M41.7496 33.0336C40.5578 33.9048 40.3676 34.8537 40.3359 35.1173C40.1483 35.2338 39.9712 35.3365 39.81 35.428C40.0611 34.9869 40.3015 34.5374 40.5209 34.0796C40.8855 33.2972 41.2 32.4926 41.4668 31.6685C41.4959 31.577 41.525 31.4882 41.5514 31.3966C41.7575 30.7197 42.0561 30.076 42.4551 29.5016C42.4815 29.4628 42.508 29.4239 42.5344 29.3879C45.8691 27.4734 44.3391 23.5641 44.3391 23.5641C44.3894 24.427 43.5966 25.0846 42.7801 26.6577C42.0878 27.9978 42.3203 28.9356 42.4049 29.1853C42.2331 29.4628 42.0746 29.7042 41.9372 29.9039C41.9927 29.6515 42.0429 29.399 42.0878 29.1465C42.2464 28.2947 42.3336 27.429 42.3732 26.5662L42.3864 26.2415C42.3917 26.1333 42.3943 26.0251 42.3943 25.9169V25.2677C42.389 25.0513 42.3758 24.8349 42.3679 24.6184C42.3626 24.5102 42.36 24.402 42.352 24.2938L42.323 23.972C42.3045 23.7583 42.3151 23.5419 42.3573 23.3311L42.5951 22.0964C45.0262 19.0305 42.2358 15.9841 42.2358 15.9841C42.5846 16.7665 42.0772 17.6849 41.8685 19.4633C41.6914 20.9755 42.2358 21.7607 42.4023 21.9604C42.3336 22.3183 42.2622 22.6319 42.1988 22.8871L42.1724 22.6874C42.1486 22.4737 42.101 22.2629 42.064 22.0492L42.0059 21.7301C41.9874 21.6247 41.9663 21.5193 41.9398 21.4138C41.8394 20.9949 41.7496 20.5732 41.6227 20.1625L41.5329 19.8518L41.488 19.6964L41.4351 19.5438L41.2264 18.9362C41.0943 18.5838 40.9568 18.2314 40.8115 17.8846C40.5473 17.2631 40.3834 16.5972 40.3491 15.9175C40.3412 15.7593 40.328 15.604 40.3147 15.4514C41.6227 11.7057 38.0211 9.82181 38.0211 9.82181C38.5998 10.4378 38.4148 11.481 38.7874 13.2289C39.1045 14.7161 39.8682 15.2627 40.0875 15.3931C40.1562 15.9008 40.1958 16.3281 40.2143 16.625C40.209 16.6139 40.2038 16.6028 40.1985 16.5917L40.0531 16.3087C40.0056 16.2144 39.9474 16.1228 39.8972 16.0312L39.5801 15.4791L39.2366 14.9436C39.1785 14.8548 39.123 14.766 39.0649 14.6773L38.8799 14.4192C38.6923 14.1445 38.4915 13.8782 38.2854 13.6174C37.9973 13.2345 37.6036 12.6824 37.2601 12.2828C37.0989 12.0942 36.9589 11.8888 36.8558 11.6613C35.3576 8.34576 31.6978 9.278 31.6978 9.278C32.5196 9.33349 33.0428 10.2408 34.4274 11.2868C35.5214 12.1136 36.3907 12.0636 36.7052 12.0054C36.7422 12.0192 36.7898 12.0331 36.8267 12.047L37.2443 12.5076C37.7912 13.1402 38.3144 13.795 38.7742 14.4997L38.9513 14.7605C39.0067 14.8493 39.0622 14.9408 39.1151 15.0296L39.4427 15.5679L39.5801 15.8231C39.2155 15.4985 38.8508 15.2155 38.4862 14.9714C36.5123 11.5614 32.8631 13.3399 32.8631 13.3399C33.6823 13.2484 34.3429 14.0502 35.8781 14.8354C37.1835 15.5041 38.066 15.2183 38.2986 15.1156C38.8218 15.4375 39.2551 15.751 39.5062 15.9424C39.6647 16.0618 39.7995 16.2171 39.8867 16.4002C39.8867 16.4002 39.8867 16.4002 39.8867 16.403L40.0241 16.6888C40.4019 17.4407 40.7058 18.2314 40.9806 19.0305L41.1709 19.6354L41.2185 19.788L41.2581 19.9406L41.3374 20.2485C41.4536 20.6564 41.5303 21.0726 41.6201 21.486C41.6439 21.5886 41.6597 21.6941 41.6756 21.7995V21.8051C41.4298 21.4083 41.1709 21.0448 40.9066 20.7174C39.9712 16.8497 35.9865 17.4296 35.9865 17.4296C36.795 17.5933 37.2046 18.5644 38.4518 19.7852C39.5141 20.8256 40.4363 20.8229 40.69 20.7979C40.9753 21.1253 41.2105 21.4166 41.3823 21.6414C41.6227 21.9549 41.7813 22.3322 41.8156 22.7318V22.7373L41.8843 23.3699L41.9002 23.528L41.9108 23.6862L41.9319 24.0025L41.953 24.3188C41.961 24.4242 41.9583 24.5297 41.961 24.6351C41.9636 24.846 41.9715 25.0568 41.9715 25.2705L41.9557 25.9058C41.9557 26.0113 41.9504 26.1167 41.9398 26.2221L41.9187 26.5384C41.887 26.9962 41.8394 27.4512 41.776 27.9035C41.6914 27.5234 41.591 27.1599 41.4774 26.8214C41.9187 22.8594 37.9973 21.9077 37.9973 21.9077C38.6976 22.3627 38.7478 23.4254 39.4982 25.0318C40.1377 26.3997 40.9991 26.7437 41.2449 26.8159C41.3374 27.0628 41.4193 27.2903 41.4853 27.4929C41.6518 27.9895 41.6862 28.5222 41.5778 29.0355C41.5778 29.0355 41.5778 29.0411 41.5778 29.0438C41.4061 29.8679 41.1947 30.6836 40.9146 31.4716C40.6371 32.2623 40.3121 33.0336 39.9422 33.7772C39.8312 33.9936 39.7176 34.2073 39.5986 34.4181C39.6673 33.9714 39.7043 33.5414 39.7202 33.128C41.5144 29.6098 38.1982 27.2182 38.1982 27.2182C38.6897 27.9118 38.3673 28.919 38.5047 30.703C38.621 32.2235 39.3053 32.8755 39.5062 33.0364C39.5062 33.0947 39.5062 33.1529 39.5062 33.2084C39.5009 34.174 39.2181 35.1201 38.687 35.908C38.6844 35.9108 38.6817 35.9164 38.6791 35.9191C38.2193 36.6045 37.6987 37.2454 37.1544 37.8558C37.0144 38.0056 36.8822 38.1637 36.7369 38.3052L36.3062 38.7409C36.3062 38.7409 36.3009 38.7381 36.2956 38.7298C36.4277 38.4856 36.5467 38.2414 36.6524 38.0001C39.6039 35.4863 37.4319 31.9321 37.4319 31.9321C37.63 32.7728 36.9615 33.5691 36.4277 35.2699C35.9732 36.7182 36.3643 37.5977 36.4885 37.828C36.4013 38.0472 36.3168 38.247 36.2401 38.4273C36.0472 38.8657 35.7671 39.2541 35.4051 39.551C35.4051 39.551 35.4025 39.5538 35.3998 39.5566C34.7762 40.0782 34.1288 40.5637 33.4418 40.9882C33.0428 41.2352 32.6359 41.4682 32.221 41.6846C32.3928 41.4987 32.554 41.3101 32.7019 41.1214C35.5293 39.7536 34.4882 36.4685 34.4882 36.4685C34.4829 37.176 33.7985 37.6671 33.0481 38.9045C32.4086 39.9589 32.5487 40.7385 32.6042 40.9494C32.5117 41.077 32.4245 41.1963 32.3426 41.3045C32.073 41.6597 31.7242 41.9427 31.3252 42.1202C31.3252 42.1202 31.3226 42.1202 31.3199 42.1202C30.588 42.4421 29.8375 42.714 29.0739 42.936H29.066V42.9387C28.8599 42.9998 28.7066 43.194 28.7013 43.4187C28.6934 43.8044 29.0316 44.0513 29.3513 43.9487C30.152 43.6934 30.9394 43.3827 31.7005 43.022C32.4615 42.6585 33.1961 42.234 33.9042 41.7679C34.3297 41.4904 34.7419 41.1852 35.1409 40.8661C35.6826 40.4333 36.3353 40.1753 37.0144 40.1142C40.5631 41.5459 42.4128 37.792 42.4128 37.792C41.8183 38.3913 40.8274 38.1804 39.1574 38.5466C37.7357 38.8574 37.2046 39.6509 37.0778 39.8812C36.7369 39.9284 36.433 39.9561 36.1846 39.9755C36.4092 39.7674 36.6286 39.551 36.8479 39.3346L37.2865 38.8685C37.4345 38.7159 37.5693 38.5466 37.712 38.3885C38.2642 37.7365 38.7874 37.0539 39.2498 36.3298C39.2604 36.3159 39.2683 36.2993 39.2789 36.2854C39.5062 35.9302 39.8153 35.6445 40.1773 35.4502C40.2355 35.4197 40.2962 35.3864 40.3517 35.3531C44.1489 35.2033 44.4448 30.9916 44.4448 30.9916C44.1225 31.7879 43.1316 32.0043 41.7337 33.0281L41.7496 33.0336Z"
            fill="#F4B223" />
        <path
            d="M5.8686 33.0336C7.06034 33.9048 7.25059 34.8537 7.2823 35.1173C7.46991 35.2338 7.64695 35.3365 7.80814 35.428C7.55711 34.9869 7.31665 34.5374 7.09733 34.0796C6.73268 33.2972 6.41823 32.4926 6.15134 31.6685C6.12228 31.577 6.09321 31.4882 6.06679 31.3966C5.86068 30.7197 5.56208 30.076 5.16308 29.5016C5.13665 29.4628 5.11023 29.4239 5.08381 29.3879C1.74907 27.4734 3.27903 23.5641 3.27903 23.5641C3.22883 24.427 4.02155 25.0846 4.83542 26.6577C5.52773 27.9978 5.2952 28.9356 5.21064 29.1853C5.3824 29.4628 5.54094 29.7042 5.67835 29.9039C5.62286 29.6515 5.57265 29.399 5.52773 29.1465C5.36919 28.2947 5.28199 27.429 5.23971 26.5662L5.2265 26.2415C5.22121 26.1333 5.21857 26.0251 5.21857 25.9169V25.2677C5.22385 25.0513 5.23707 24.8349 5.24499 24.6184C5.25028 24.5102 5.25292 24.402 5.26085 24.2938L5.28991 23.972C5.30841 23.7583 5.29784 23.5419 5.25556 23.3311L5.01774 22.0964C2.58672 19.0305 5.37711 15.9841 5.37711 15.9841C5.02831 16.7665 5.53566 17.6849 5.74441 19.4633C5.92145 20.9755 5.37711 21.7607 5.21064 21.9604C5.27934 22.3183 5.35069 22.6319 5.41411 22.8871L5.44053 22.6874C5.46431 22.4737 5.51188 22.2629 5.54887 22.0492L5.607 21.7301C5.6255 21.6247 5.64664 21.5193 5.67306 21.4138C5.77348 20.9949 5.86332 20.5732 5.99016 20.1625L6.08 19.8518L6.12492 19.6964L6.17777 19.5438L6.38652 18.9362C6.51864 18.5838 6.65605 18.2314 6.80138 17.8846C7.06562 17.2631 7.22945 16.5972 7.2638 15.9175C7.27173 15.7593 7.28494 15.604 7.29815 15.4514C5.99016 11.7057 9.59177 9.82181 9.59177 9.82181C9.01308 10.4378 9.19805 11.481 8.82547 13.2289C8.50838 14.7161 7.74472 15.2627 7.5254 15.3931C7.4567 15.9008 7.41706 16.3281 7.39857 16.625C7.40385 16.6139 7.40913 16.6028 7.41442 16.5917L7.55975 16.3087C7.60732 16.2144 7.66545 16.1228 7.71566 16.0312L8.03275 15.4791L8.37626 14.9436C8.43439 14.8548 8.48988 14.766 8.54802 14.6773L8.73299 14.4192C8.92324 14.1445 9.12142 13.8782 9.32753 13.6174C9.61556 13.2345 10.0093 12.6824 10.3528 12.2828C10.514 12.0942 10.654 11.8888 10.7571 11.6613C12.2553 8.34576 15.9151 9.278 15.9151 9.278C15.0933 9.33349 14.5701 10.2408 13.1855 11.2868C12.0915 12.1136 11.2221 12.0636 10.9077 12.0054C10.8707 12.0192 10.8231 12.0331 10.7861 12.047L10.366 12.5076C9.81902 13.1402 9.29582 13.795 8.83604 14.4997L8.659 14.7605C8.60351 14.8493 8.54802 14.9408 8.49517 15.0296L8.16751 15.5679L8.0301 15.8231C8.39476 15.4985 8.75941 15.2155 9.12406 14.9714C11.098 11.5614 14.7471 13.3399 14.7471 13.3399C13.928 13.2484 13.2674 14.0502 11.7321 14.8354C10.4268 15.5041 9.54421 15.2183 9.31168 15.1156C8.78848 15.4375 8.35512 15.751 8.10409 15.9424C7.94555 16.0618 7.81078 16.2171 7.72358 16.4002C7.72358 16.4002 7.72358 16.4002 7.72358 16.403L7.58618 16.6888C7.20831 17.4407 6.90179 18.2314 6.62962 19.0305L6.43937 19.6354L6.3918 19.788L6.35217 19.9406L6.27289 20.2485C6.15663 20.6564 6.07736 21.0726 5.99016 21.486C5.96637 21.5886 5.95052 21.6941 5.93466 21.7995V21.8051C6.18041 21.4083 6.43937 21.0448 6.70361 20.7174C7.63903 16.8497 11.6264 17.4296 11.6264 17.4296C10.8179 17.5933 10.4083 18.5644 9.16106 19.7852C8.09881 20.8256 7.1766 20.8229 6.92293 20.7979C6.63755 21.1253 6.40237 21.4166 6.23062 21.6414C5.99016 21.9549 5.83161 22.3322 5.79726 22.7318V22.7373L5.72856 23.3699L5.7127 23.528L5.70213 23.6862L5.68099 24.0025L5.65985 24.3188C5.65193 24.4242 5.65457 24.5297 5.65193 24.6351C5.64928 24.846 5.64136 25.0568 5.64136 25.2705L5.65721 25.9058C5.65721 26.0113 5.6625 26.1167 5.67306 26.2221L5.6942 26.5384C5.72591 26.9962 5.77348 27.4512 5.83689 27.9035C5.92145 27.5234 6.02186 27.1599 6.13549 26.8214C5.6942 22.8594 9.61556 21.9077 9.61556 21.9077C8.91531 22.3627 8.86511 23.4254 8.11466 25.0318C7.4752 26.3997 6.61377 26.7437 6.36802 26.8159C6.27554 27.0628 6.19362 27.2903 6.12756 27.4929C5.96109 27.9895 5.92674 28.5222 6.03508 29.0355C6.03508 29.0355 6.03508 29.0411 6.03508 29.0438C6.20683 29.8679 6.41823 30.6836 6.69832 31.4716C6.97578 32.2623 7.29815 33.0336 7.67073 33.7772C7.78172 33.9936 7.89534 34.2073 8.01425 34.4181C7.94555 33.9714 7.90855 33.5414 7.8927 33.128C6.09849 29.6098 9.41473 27.2182 9.41473 27.2182C8.92324 27.9118 9.24562 28.919 9.10821 30.703C8.99194 32.2235 8.30756 32.8755 8.10673 33.0364C8.10673 33.0947 8.10673 33.1529 8.10673 33.2084C8.11202 34.174 8.39476 35.1201 8.92588 35.908C8.92853 35.9108 8.93117 35.9164 8.93381 35.9191C9.39359 36.6045 9.91415 37.2454 10.4585 37.8558C10.5985 38.0056 10.7307 38.1637 10.876 38.3052L11.3067 38.7409C11.3067 38.7409 11.312 38.7381 11.3173 38.7298C11.1852 38.4856 11.0662 38.2414 10.9605 38.0001C8.00896 35.4863 10.181 31.9321 10.181 31.9321C9.98285 32.7728 10.6514 33.5691 11.1852 35.2699C11.6396 36.7182 11.2486 37.5977 11.1244 37.828C11.2116 38.0472 11.2961 38.247 11.3728 38.4273C11.5657 38.8657 11.8458 39.2541 12.2078 39.551C12.2078 39.551 12.2104 39.5538 12.2131 39.5566C12.8367 40.0782 13.4841 40.5637 14.1711 40.9882C14.5701 41.2352 14.977 41.4682 15.3919 41.6846C15.2201 41.4987 15.0589 41.3101 14.911 41.1214C12.0836 39.7536 13.1247 36.4685 13.1247 36.4685C13.13 37.176 13.8144 37.6671 14.5648 38.9045C15.2043 39.9589 15.0642 40.7385 15.0087 40.9494C15.1012 41.077 15.1884 41.1963 15.2703 41.3045C15.5399 41.6597 15.8887 41.9427 16.2877 42.1202C16.2877 42.1202 16.2903 42.1202 16.293 42.1202C17.0249 42.4421 17.7753 42.714 18.539 42.936H18.5469V42.9387C18.753 42.9998 18.9063 43.194 18.9116 43.4187C18.9195 43.8044 18.5813 44.0513 18.2616 43.9487C17.4609 43.6934 16.6735 43.3827 15.9124 43.022C15.1514 42.6585 14.4168 42.234 13.7087 41.7679C13.2832 41.4904 12.871 41.1852 12.472 40.8661C11.9303 40.4333 11.2776 40.1753 10.5985 40.1142C7.04977 41.5459 5.20007 37.792 5.20007 37.792C5.79462 38.3913 6.78552 38.1804 8.45553 38.5466C9.87716 38.8574 10.4083 39.6509 10.5351 39.8812C10.876 39.9284 11.1799 39.9561 11.4283 39.9755C11.2036 39.7674 10.9843 39.551 10.765 39.3346L10.3264 38.8685C10.1784 38.7159 10.0436 38.5466 9.90094 38.3885C9.34867 37.7365 8.82547 37.0539 8.36305 36.3298C8.35248 36.3159 8.34455 36.2993 8.33398 36.2854C8.10673 35.9302 7.79757 35.6445 7.43556 35.4502C7.37743 35.4197 7.31665 35.3864 7.26116 35.3531C3.464 35.2033 3.16805 30.9916 3.16805 30.9916C3.49043 31.7879 4.48133 32.0043 5.87917 33.0281L5.8686 33.0336Z"
            fill="#F4B223" />
    </g>
    <defs>
        <clipPath id="clip0_81_35">
            <rect width="147.558" height="50" fill="white" />
        </clipPath>
    </defs>
</svg>