<svg width="233" height="75" viewBox="0 0 233 75" fill="none" xmlns="http://www.w3.org/2000/svg">
<g clip-path="url(#clip0_105_3849)">
<path d="M101.103 32.9117H83.9438V32.0252C86.6032 32.0252 86.957 31.2803 86.957 28.7291V13.4844C86.957 10.9332 86.6032 10.1882 83.9438 10.1882V9.30176H93.8698V10.1882C91.2104 10.1882 90.8566 10.9332 90.8566 13.4844V28.7291C90.8566 30.7143 91.1396 31.2803 93.233 31.2803H95.855C98.7641 31.2803 99.7213 30.0026 100.287 27.3099H101.315L101.103 32.9117Z" fill="#2D2A26"/>
<path d="M103.654 32.9117V32.1335C105.96 32.1335 106.314 31.2137 106.314 29.0496V20.7176C106.314 18.7657 105.606 17.8793 103.654 17.8793V17.101L109.893 16.252V29.0496C109.893 31.2137 110.247 32.1335 112.552 32.1335V32.9117H103.654ZM108.157 13.3762C106.88 13.3762 105.96 12.3815 105.96 11.1413C105.96 9.90106 106.917 8.94385 108.157 8.94385C109.398 8.94385 110.392 9.90106 110.392 11.1413C110.392 12.3815 109.398 13.3762 108.157 13.3762Z" fill="#2D2A26"/>
<path d="M125.425 21.8122C122.233 21.8122 124.646 17.4506 121.558 17.4506C118.72 17.4506 118.474 21.2087 118.474 23.2646C118.474 26.9894 119.823 31.6673 124.326 31.6673C125.391 31.6673 126.453 31.4551 127.481 31.1346V32.4123C126.132 33.049 124.397 33.2655 122.944 33.2655C117.022 33.2655 114.612 29.5781 114.612 24.0096C114.612 19.3276 116.951 16.2437 121.846 16.2437C123.939 16.2437 127.589 17.2716 127.589 19.8936C127.589 21.1338 126.594 21.808 125.425 21.808V21.8122Z" fill="#2D2A26"/>
<path d="M133.549 22.9483C133.549 27.0269 135.18 31.6715 140.004 31.6715C141.102 31.6715 142.239 31.4592 143.267 31.068V32.3457C141.706 32.9491 140.041 33.2696 138.372 33.2696C132.629 33.2696 129.687 29.7945 129.687 24.1927C129.687 19.2651 131.955 16.252 137.099 16.252C141.564 16.252 143.587 18.6616 143.587 22.9525H133.553L133.549 22.9483ZM136.953 17.4547C134.718 17.4547 133.549 19.4399 133.549 21.4958H140.004C140.004 19.3692 139.471 17.4547 136.953 17.4547Z" fill="#2D2A26"/>
<path d="M157.766 33.2657V29.0831H157.695C156.559 31.2472 155.003 33.2657 152.306 33.2657C148.902 33.2657 147.591 31.884 147.591 28.5504V20.7137C147.591 18.7618 146.883 17.8753 144.931 17.8753V17.0971L151.17 16.248V25.6787C151.17 26.5319 151.17 27.3809 151.278 28.1966C151.49 29.9321 151.952 31.1057 153.867 31.1057C155.96 31.1057 157.766 26.9938 157.766 25.2209V20.7178C157.766 18.7659 157.059 17.8795 155.107 17.8795V17.1012L161.345 16.2522V28.8042C161.345 30.752 162.053 31.6426 164.005 31.6426V32.4208L157.766 33.274V33.2657Z" fill="#2D2A26"/>
<path d="M101.103 65.4239H83.9438V64.5375C86.6032 64.5375 86.957 63.7925 86.957 61.2413V45.9966C86.957 43.4454 86.6032 42.7004 83.9438 42.7004V41.814H93.8698V42.7004C91.2104 42.7004 90.8566 43.4454 90.8566 45.9966V61.2413C90.8566 63.2265 91.1396 63.7925 93.233 63.7925H95.855C98.7641 63.7925 99.7213 62.5148 100.287 59.8221H101.315L101.103 65.4239Z" fill="#2D2A26"/>
<path d="M103.654 65.4239V64.6457C105.96 64.6457 106.314 63.7259 106.314 61.5618V53.2298C106.314 51.2779 105.606 50.3915 103.654 50.3915V49.6132L109.893 48.7642V61.5618C109.893 63.7259 110.247 64.6457 112.552 64.6457V65.4239H103.654ZM108.157 45.8884C106.88 45.8884 105.96 44.8937 105.96 43.6535C105.96 42.4133 106.917 41.4561 108.157 41.4561C109.398 41.4561 110.392 42.4133 110.392 43.6535C110.392 44.8937 109.398 45.8884 108.157 45.8884Z" fill="#2D2A26"/>
<path d="M123.477 65.7776C121.492 65.7776 120.214 64.8204 118.94 63.4386L116.672 65.4238H115.573V45.2474C115.573 43.3329 114.866 42.3757 112.914 42.409V41.6307L119.153 40.7817V51.3486H119.223C120.181 49.5382 121.529 48.7599 123.585 48.7599C128.583 48.7599 129.861 53.0133 129.861 57.2334C129.861 61.4535 128.55 65.7776 123.481 65.7776H123.477ZM122.557 50.4621C119.223 50.4621 119.153 54.8237 119.153 57.2334C119.153 59.3268 119.332 63.7591 122.307 63.7591C125.891 63.7591 125.995 59.9302 125.995 57.2334C125.995 54.9277 125.745 50.4621 122.557 50.4621Z" fill="#2D2A26"/>
<path d="M136.845 55.4605C136.845 59.5391 138.476 64.1837 143.3 64.1837C144.398 64.1837 145.534 63.9714 146.562 63.5802V64.8579C145.002 65.4613 143.337 65.7818 141.668 65.7818C135.925 65.7818 132.982 62.3067 132.982 56.7049C132.982 51.7773 135.251 48.7642 140.395 48.7642C144.86 48.7642 146.883 51.1739 146.883 55.4647H136.849L136.845 55.4605ZM140.249 49.9669C138.014 49.9669 136.845 51.9521 136.845 54.008H143.3C143.3 51.8814 142.767 49.9669 140.249 49.9669Z" fill="#2D2A26"/>
<path d="M159.784 52.5886C158.544 52.5886 158.719 51.7729 157.587 51.7729C157.196 51.7729 156.842 52.0226 156.559 52.3056C155.281 53.5833 154.894 55.8848 154.894 57.587V61.5573C154.894 63.684 155.248 64.6412 157.554 64.6412V65.4195H148.656V64.6412C150.961 64.6412 151.315 63.684 151.315 61.5573V53.2254C151.315 51.2735 150.608 50.387 148.656 50.387V49.6088L154.894 48.7598V52.8716H154.965C155.781 50.7075 157.233 48.7598 159.789 48.7598C160.783 48.7598 161.703 49.5755 161.703 50.6034C161.703 51.7396 160.925 52.5886 159.789 52.5886H159.784Z" fill="#2D2A26"/>
<path d="M168.899 50.5663V61.1331C168.899 63.2265 169.644 64.1837 171.77 64.1837C172.232 64.1837 172.657 64.113 173.081 63.9715V65.3906C172.445 65.6404 171.733 65.7819 171.059 65.7819C167.621 65.7819 165.315 65.0743 165.315 61.1373V50.5704H162.444V49.5758C166.239 49.5758 167.654 46.5626 167.871 43.229H168.899V49.1138H173.51V50.5663H168.899Z" fill="#2D2A26"/>
<path d="M187.515 65.7775C185.779 65.7775 185.034 64.9992 184.714 63.3678C183.403 64.8203 181.913 65.7775 179.857 65.7775C177.589 65.7775 175.212 64.1835 175.212 61.7364C175.212 57.1625 181.276 56.5258 184.681 56.3468V54.5739C184.681 52.7635 184.714 49.9626 182.233 49.9626C178.725 49.9626 181.135 54.216 177.909 54.216C176.811 54.216 175.887 53.5792 175.887 52.4056C175.887 49.5339 180.211 48.7557 182.375 48.7557C186.628 48.7557 188.26 50.3163 188.26 54.5697V61.624C188.26 62.8309 188.26 64.5664 189.854 64.5664C190.316 64.5664 190.811 64.3874 191.235 64.2459V65.1324C189.958 65.5569 188.859 65.7691 187.511 65.7691L187.515 65.7775ZM184.676 57.6578C182.371 57.7285 179.075 58.2945 179.075 61.2411C179.075 62.6228 179.82 63.759 181.309 63.759C183.686 63.759 184.676 61.8779 184.676 59.7179V57.6619V57.6578ZM185.351 42.5879L183.116 46.2752H181.626L182.441 42.4464C182.691 41.2769 182.795 40.1074 184.285 40.1074C185.03 40.1074 185.879 40.3904 185.879 41.2769C185.879 41.7389 185.596 42.1967 185.346 42.5879H185.351Z" fill="#2D2A26"/>
<path d="M203.188 52.5886C201.948 52.5886 202.123 51.7729 200.991 51.7729C200.6 51.7729 200.246 52.0226 199.963 52.3056C198.685 53.5833 198.298 55.8848 198.298 57.587V61.5573C198.298 63.684 198.652 64.6412 200.958 64.6412V65.4195H192.06V64.6412C194.365 64.6412 194.719 63.684 194.719 61.5573V53.2254C194.719 51.2735 194.011 50.387 192.06 50.387V49.6088L198.298 48.7598V52.8716H198.369C199.185 50.7075 200.637 48.7598 203.192 48.7598C204.187 48.7598 205.107 49.5755 205.107 50.6034C205.107 51.7396 204.329 52.5886 203.192 52.5886H203.188Z" fill="#2D2A26"/>
<path d="M206.201 65.4239V64.6457C208.507 64.6457 208.861 63.7259 208.861 61.5618V53.2298C208.861 51.2779 208.153 50.3915 206.201 50.3915V49.6132L212.44 48.7642V61.5618C212.44 63.7259 212.793 64.6457 215.099 64.6457V65.4239H206.201ZM210.704 45.8884C209.427 45.8884 208.507 44.8937 208.507 43.6535C208.507 42.4133 209.464 41.4561 210.704 41.4561C211.944 41.4561 212.939 42.4133 212.939 43.6535C212.939 44.8937 211.944 45.8884 210.704 45.8884Z" fill="#2D2A26"/>
<path d="M224.817 65.7777C219.248 65.7777 217.23 62.5148 217.23 57.2668C217.23 52.0187 219.253 48.7559 224.817 48.7559C230.381 48.7559 232.404 52.0187 232.404 57.2668C232.404 62.5148 230.381 65.7777 224.817 65.7777ZM224.817 49.9628C221.271 49.9628 221.092 54.7156 221.092 57.2668C221.092 59.818 221.271 64.5707 224.817 64.5707C228.363 64.5707 228.542 59.818 228.542 57.2668C228.542 54.7156 228.363 49.9628 224.817 49.9628Z" fill="#2D2A26"/>
<path d="M37.4979 74.9958C58.2074 74.9958 74.9958 58.2074 74.9958 37.4979C74.9958 16.7884 58.2074 0 37.4979 0C16.7884 0 0 16.7884 0 37.4979C0 58.2074 16.7884 74.9958 37.4979 74.9958Z" fill="#2D2A26"/>
<path d="M41.6015 43.3245H23.6392L23.7931 42.5462C26.669 42.5462 27.4098 41.5724 27.955 38.8921L31.376 21.862C31.4925 21.3168 31.609 20.7716 31.609 20.2306C31.609 18.441 30.0941 18.2079 28.6541 18.2079L28.8081 17.4297H39.1502L38.9962 18.2079C36.1204 18.2079 35.3796 19.1818 34.8344 21.862L31.4134 38.8921C31.2969 39.4373 31.1804 39.9825 31.1804 40.5236C31.1804 41.847 32.7369 41.8054 33.7066 41.8054H36.2744C39.3084 41.8054 40.9773 40.6401 41.9137 37.7601H42.7294L41.6015 43.3203V43.3245Z" fill="#F4B221"/>
<path d="M53.7288 32.0166C54.2366 32.5535 54.4946 33.2485 54.4946 34.0934C54.4946 35.0548 54.1533 35.9329 53.4708 36.732C52.7883 37.531 51.8519 38.1595 50.6574 38.6214C49.4671 39.0834 48.1478 39.3123 46.7079 39.3123C46.0753 39.3123 45.3719 39.2457 44.602 39.1084L43.5366 40.694C42.1132 42.8082 40.9229 44.5229 39.9616 45.8422C39.0002 47.1573 37.993 48.3767 36.9359 49.4879C38.3385 50.4285 39.5828 51.1443 40.6691 51.6354C41.7553 52.1265 42.8748 52.372 44.0277 52.372C45.0473 52.372 45.9213 52.1848 46.6496 51.8102C47.3779 51.4356 47.9189 50.9113 48.2644 50.237C48.4766 49.8333 48.6972 49.6585 48.9261 49.7168C49.0218 49.7376 49.1051 49.7959 49.1717 49.8916C49.2382 49.9873 49.2715 50.1122 49.2715 50.2662C49.2715 50.3993 49.2424 50.545 49.1841 50.699C48.743 51.9475 48.0355 52.8964 47.0658 53.5374C46.0961 54.1824 44.9932 54.5029 43.7655 54.5029C42.4378 54.5029 41.1768 54.17 39.9741 53.5082C38.7713 52.8465 37.3729 51.881 35.7789 50.6116C33.4317 52.7258 31.1552 53.7829 28.9453 53.7829C27.8091 53.7829 26.7936 53.5873 25.8905 53.1919C24.9874 52.7966 24.2799 52.2514 23.7721 51.548C23.2644 50.8447 23.0063 50.0747 23.0063 49.2257C23.0063 48.0521 23.3892 47.0907 24.1592 46.3416C24.9291 45.5925 25.9196 45.2179 27.1307 45.2179C28.5166 45.2179 29.8276 45.4842 31.0678 46.0128C32.308 46.5413 33.6564 47.2863 35.1172 48.2477C35.9038 47.382 36.6612 46.4789 37.3812 45.5384C38.1012 44.5978 39.125 43.2119 40.4527 41.3849C40.8189 40.848 41.5181 39.8658 42.5585 38.4425C41.6762 38.0388 40.9188 37.5227 40.2945 36.8984C39.6702 36.2742 39.1958 35.5667 38.867 34.7801C38.8087 34.6261 38.7796 34.5096 38.7796 34.4346C38.7796 34.2432 38.8462 34.1183 38.9835 34.0601L39.1001 34.0309C39.3123 34.0309 39.5038 34.1933 39.6786 34.522C40.486 35.962 41.6388 37.0191 43.137 37.6933C44.7144 35.6374 46.1876 34.0434 47.561 32.9073C48.9344 31.7752 50.3162 31.2051 51.6979 31.2051C52.5427 31.2051 53.2211 31.4756 53.7288 32.0125V32.0166ZM34.1059 49.2881C32.7783 48.2519 31.5714 47.4569 30.4893 46.9076C29.4031 46.3582 28.2835 46.0877 27.1307 46.0877C26.1485 46.0877 25.3619 46.379 24.7668 46.9659C24.1717 47.5527 23.872 48.306 23.872 49.2299C23.872 50.1538 24.2632 50.8821 25.0415 51.4773C25.8197 52.0724 26.8144 52.372 28.0255 52.372C29.9274 52.372 31.9542 51.3441 34.1101 49.2881H34.1059ZM53.1087 32.6076C52.7633 32.2539 52.293 32.0749 51.6937 32.0749C50.7698 32.0749 49.8001 32.5993 48.7804 33.6481C47.7608 34.6968 46.5414 36.2492 45.1181 38.3051C45.6965 38.4008 46.2251 38.4508 46.7037 38.4508C48.0105 38.4508 49.1925 38.2552 50.2496 37.8598C51.3067 37.4644 52.1349 36.9359 52.73 36.2742C53.3251 35.6124 53.6248 34.8675 53.6248 34.0393C53.6248 33.4441 53.45 32.9697 53.1046 32.6118L53.1087 32.6076Z" fill="#F4B221"/>
<path d="M65.7568 49.5504C63.8798 50.8572 63.5802 52.2806 63.5302 52.6759C63.2347 52.8507 62.9559 53.0047 62.702 53.1421C63.0974 52.4803 63.4761 51.8061 63.8216 51.1194C64.3959 49.9458 64.8911 48.7389 65.3115 47.5028C65.3573 47.3655 65.403 47.2323 65.4447 47.095C65.7693 46.0795 66.2396 45.1139 66.868 44.2524C66.9096 44.1942 66.9512 44.1359 66.9929 44.0818C72.2451 41.2102 69.8354 35.3462 69.8354 35.3462C69.9145 36.6405 68.6659 37.6268 67.3799 39.9866C66.2895 41.9967 66.6558 43.4034 66.7889 43.778C66.5184 44.1942 66.2687 44.5563 66.0523 44.8559C66.1397 44.4772 66.2188 44.0985 66.2895 43.7197C66.5392 42.4421 66.6766 41.1436 66.739 39.8492L66.7598 39.3623C66.7681 39.2 66.7723 39.0377 66.7723 38.8754V37.9015C66.764 37.5769 66.7432 37.2523 66.7307 36.9277C66.7223 36.7653 66.7182 36.603 66.7057 36.4407L66.6599 35.958C66.6308 35.6375 66.6474 35.3129 66.714 34.9966L67.0886 33.1446C70.9174 28.5458 66.5226 23.9761 66.5226 23.9761C67.0719 25.1497 66.2729 26.5273 65.9441 29.195C65.6652 31.4632 66.5226 32.641 66.7848 32.9406C66.6766 33.4775 66.5642 33.9478 66.4643 34.3307L66.4227 34.031C66.3852 33.7106 66.3103 33.3943 66.2521 33.0738L66.1605 32.5952C66.1314 32.4371 66.0981 32.2789 66.0565 32.1208C65.8983 31.4923 65.7568 30.8597 65.557 30.2438L65.4155 29.7777L65.3448 29.5446L65.2615 29.3157L64.9328 28.4043C64.7247 27.8757 64.5083 27.3472 64.2794 26.8269C63.8632 25.8947 63.6051 24.8959 63.551 23.8762C63.5386 23.639 63.5178 23.4059 63.4969 23.177C65.557 17.5586 59.8845 14.7327 59.8845 14.7327C60.7959 15.6566 60.5046 17.2215 61.0914 19.8434C61.5908 22.0742 62.7936 22.894 63.139 23.0896C63.2472 23.8512 63.3097 24.4922 63.3388 24.9375C63.3305 24.9208 63.3221 24.9042 63.3138 24.8875L63.0849 24.463C63.01 24.3215 62.9185 24.1842 62.8394 24.0469L62.34 23.2187L61.7989 22.4154C61.7074 22.2822 61.62 22.1491 61.5284 22.0159L61.2371 21.6288C60.9416 21.2168 60.6253 20.8173 60.3007 20.4261C59.847 19.8517 59.2269 19.0235 58.6859 18.4242C58.432 18.1412 58.2114 17.8333 58.0491 17.492C55.6894 12.5186 49.9253 13.917 49.9253 13.917C51.2196 14.0002 52.0436 15.3612 54.2244 16.9302C55.9474 18.1704 57.3167 18.0955 57.8119 18.0081C57.8702 18.0289 57.9451 18.0497 58.0033 18.0705L58.6609 18.7614C59.5224 19.7102 60.3465 20.6924 61.0706 21.7495L61.3494 22.1407C61.4368 22.2739 61.5242 22.4113 61.6075 22.5444L62.1235 23.3518L62.34 23.7347C61.7656 23.2478 61.1913 22.8233 60.617 22.457C57.5081 17.3422 51.7606 20.0099 51.7606 20.0099C53.0508 19.8726 54.0912 21.0753 56.5093 22.2531C58.5652 23.2561 59.9552 22.8274 60.3215 22.6735C61.1455 23.1562 61.8281 23.6265 62.2234 23.9137C62.4731 24.0926 62.6854 24.3257 62.8227 24.6004C62.8227 24.6004 62.8227 24.6004 62.8227 24.6045L63.0391 25.0332C63.6343 26.1611 64.1129 27.3472 64.5457 28.5458L64.8454 29.453L64.9203 29.6819L64.9827 29.9108L65.1076 30.3728C65.2907 30.9846 65.4114 31.6089 65.5529 32.229C65.5903 32.383 65.6153 32.5411 65.6403 32.6993V32.7076C65.2532 32.1124 64.8454 31.5672 64.4292 31.0762C62.9559 25.2746 56.6799 26.1444 56.6799 26.1444C57.9534 26.39 58.5985 27.8466 60.5629 29.6778C62.2359 31.2385 63.6884 31.2343 64.0879 31.1968C64.5374 31.6879 64.9078 32.1249 65.1783 32.462C65.557 32.9323 65.8067 33.4983 65.8608 34.0976V34.1059L65.9691 35.0548L65.994 35.2921L66.0107 35.5293L66.044 36.0037L66.0773 36.4782C66.0898 36.6363 66.0856 36.7945 66.0898 36.9526C66.0939 37.2689 66.1064 37.5852 66.1064 37.9057L66.0814 38.8587C66.0814 39.0169 66.0731 39.175 66.0565 39.3332L66.0232 39.8076C65.9732 40.4943 65.8983 41.1769 65.7984 41.8552C65.6652 41.2851 65.5071 40.7399 65.3281 40.2321C66.0232 34.2891 59.847 32.8616 59.847 32.8616C60.9499 33.5441 61.029 35.1381 62.2109 37.5478C63.2181 39.5995 64.5748 40.1156 64.9619 40.2238C65.1076 40.5942 65.2366 40.9355 65.3406 41.2393C65.6028 41.9843 65.6569 42.7833 65.4863 43.5533C65.4863 43.5533 65.4863 43.5616 65.4863 43.5657C65.2158 44.8018 64.8828 46.0254 64.4417 47.2073C64.0047 48.3934 63.4928 49.5504 62.9101 50.6658C62.7353 50.9904 62.5564 51.3109 62.3691 51.6272C62.4773 50.9571 62.5356 50.312 62.5605 49.6919C65.3864 44.4148 60.1633 40.8273 60.1633 40.8273C60.9374 41.8677 60.4297 43.3785 60.6461 46.0545C60.8292 48.3352 61.9071 49.3132 62.2234 49.5546C62.2234 49.642 62.2234 49.7294 62.2234 49.8126C62.2151 51.2609 61.7698 52.6801 60.9333 53.8621C60.9291 53.8662 60.9249 53.8746 60.9208 53.8787C60.1966 54.9067 59.3767 55.8681 58.5194 56.7837C58.2988 57.0084 58.0907 57.2456 57.8618 57.4579L57.1835 58.1113C57.1835 58.1113 57.1751 58.1071 57.1668 58.0946C57.3749 57.7284 57.5622 57.3622 57.7287 57.0001C62.3774 53.2295 58.9564 47.8982 58.9564 47.8982C59.2685 49.1592 58.2156 50.3537 57.3749 52.9049C56.6591 55.0773 57.275 56.3966 57.4706 56.742C57.3333 57.0708 57.2001 57.3705 57.0794 57.641C56.7756 58.2986 56.3345 58.8812 55.7643 59.3265C55.7643 59.3265 55.7601 59.3307 55.756 59.3349C54.7738 60.1173 53.7541 60.8456 52.6721 61.4823C52.0436 61.8527 51.4027 62.2023 50.7493 62.527C51.0198 62.2481 51.2737 61.9651 51.5068 61.6821C55.9599 59.6303 54.3201 54.7028 54.3201 54.7028C54.3118 55.764 53.2339 56.5007 52.052 58.3568C51.0448 59.9383 51.2654 61.1078 51.3528 61.4241C51.2071 61.6155 51.0698 61.7945 50.9408 61.9568C50.5163 62.4895 49.9669 62.914 49.3385 63.1804C49.3385 63.1804 49.3343 63.1804 49.3301 63.1804C48.1773 63.6631 46.9954 64.071 45.7926 64.4039H45.7801V64.4081C45.4555 64.4997 45.2141 64.791 45.2058 65.1281C45.1933 65.7066 45.726 66.077 46.2296 65.923C47.4906 65.5401 48.7308 65.074 49.9294 64.533C51.128 63.9878 52.285 63.351 53.4004 62.6518C54.0704 62.2356 54.7197 61.7778 55.3481 61.2992C56.2013 60.65 57.2293 60.2629 58.2988 60.1714C63.8882 62.3189 66.8014 56.6879 66.8014 56.6879C65.865 57.5869 64.3043 57.2706 61.6741 57.8199C59.435 58.2861 58.5985 59.4764 58.3987 59.8218C57.8619 59.8925 57.3832 59.9342 56.992 59.9633C57.3458 59.6511 57.6912 59.3265 58.0366 59.0019L58.7275 58.3027C58.9606 58.0738 59.1728 57.82 59.3976 57.5827C60.2674 56.6047 61.0914 55.5809 61.8197 54.4947C61.8364 54.4739 61.8489 54.4489 61.8655 54.4281C62.2234 53.8954 62.7104 53.4667 63.2805 53.1754C63.3721 53.1296 63.4678 53.0796 63.5552 53.0297C69.5357 52.805 70.0018 46.4873 70.0018 46.4873C69.4941 47.6818 67.9334 48.0064 65.7318 49.5421L65.7568 49.5504Z" fill="#F4B221"/>
<path d="M9.24361 49.5504C11.1206 50.8572 11.4202 52.2806 11.4702 52.6759C11.7657 52.8507 12.0445 53.0047 12.2984 53.1421C11.903 52.4803 11.5243 51.8061 11.1789 51.1194C10.6045 49.9458 10.1093 48.7389 9.68893 47.5028C9.64315 47.3655 9.59737 47.2323 9.55575 47.095C9.23113 46.0795 8.76084 45.1139 8.13241 44.2524C8.09079 44.1942 8.04917 44.1359 8.00755 44.0818C2.75535 41.2102 5.16504 35.3462 5.16504 35.3462C5.08596 36.6405 6.33451 37.6268 7.61634 39.9866C8.70674 41.9967 8.3405 43.4034 8.20732 43.778C8.47784 44.1942 8.72755 44.5563 8.94396 44.8559C8.85656 44.4772 8.77749 44.0985 8.70674 43.7197C8.45703 42.4421 8.31969 41.1436 8.2531 39.8492L8.23229 39.3623C8.22397 39.2 8.21981 39.0377 8.21981 38.8754V37.9015C8.22813 37.5769 8.24894 37.2523 8.26143 36.9277C8.26975 36.7653 8.27391 36.603 8.2864 36.4407L8.33218 35.958C8.36131 35.6375 8.34466 35.3129 8.27807 34.9966L7.90351 33.1446C4.07464 28.5458 8.46952 23.9761 8.46952 23.9761C7.92016 25.1497 8.71922 26.5273 9.04801 29.195C9.32685 31.4632 8.46952 32.641 8.20732 32.9406C8.31553 33.4775 8.4279 33.9478 8.52778 34.3307L8.5694 34.031C8.60686 33.7106 8.68177 33.3943 8.74003 33.0738L8.83159 32.5952C8.86073 32.4371 8.89402 32.2789 8.93564 32.1208C9.09379 31.4923 9.23529 30.8597 9.43506 30.2438L9.57656 29.7777L9.64731 29.5446L9.73054 29.3157L10.0593 28.4043C10.2674 27.8757 10.4838 27.3472 10.7127 26.8269C11.1289 25.8947 11.3869 24.8959 11.441 23.8762C11.4535 23.639 11.4743 23.4059 11.4952 23.177C9.43506 17.5586 15.1076 14.7327 15.1076 14.7327C14.1962 15.6566 14.4875 17.2215 13.9007 19.8434C13.4013 22.0742 12.1985 22.894 11.8531 23.0896C11.7449 23.8512 11.6824 24.4922 11.6533 24.9375C11.6616 24.9208 11.6699 24.9042 11.6783 24.8875L11.9072 24.463C11.9821 24.3215 12.0736 24.1842 12.1527 24.0469L12.6521 23.2187L13.1932 22.4154C13.2847 22.2822 13.3721 22.1491 13.4637 22.0159L13.755 21.6288C14.0547 21.2168 14.3668 20.8173 14.6914 20.4261C15.1451 19.8517 15.7652 19.0235 16.3062 18.4242C16.5601 18.1412 16.7807 17.8333 16.943 17.492C19.3027 12.5186 25.0668 13.917 25.0668 13.917C23.7725 14.0002 22.9485 15.3612 20.7677 16.9302C19.0447 18.1704 17.6754 18.0955 17.1802 18.0081C17.1219 18.0289 17.047 18.0497 16.9887 18.0705L16.327 18.7614C15.4655 19.7102 14.6415 20.6924 13.9173 21.7495L13.6385 22.1407C13.5511 22.2739 13.4637 22.4113 13.3805 22.5444L12.8644 23.3518L12.648 23.7347C13.2223 23.2478 13.7966 22.8233 14.371 22.457C17.4798 17.3422 23.2273 20.0099 23.2273 20.0099C21.9371 19.8726 20.8967 21.0753 18.4787 22.2531C16.4227 23.2561 15.0327 22.8274 14.6665 22.6735C13.8424 23.1562 13.1599 23.6265 12.7645 23.9137C12.5148 24.0926 12.3025 24.3257 12.1652 24.6004C12.1652 24.6004 12.1652 24.6004 12.1652 24.6045L11.9488 25.0332C11.3537 26.1611 10.8709 27.3472 10.4422 28.5458L10.1426 29.453L10.0677 29.6819L10.0052 29.9108L9.88037 30.3728C9.69725 30.9846 9.5724 31.6089 9.43506 32.229C9.3976 32.383 9.37263 32.5411 9.34766 32.6993V32.7076C9.73471 32.1124 10.1426 31.5672 10.5587 31.0762C12.032 25.2746 18.3122 26.1444 18.3122 26.1444C17.0387 26.39 16.3936 27.8466 14.4292 29.6778C12.7562 31.2385 11.3037 31.2343 10.9042 31.1968C10.4547 31.6879 10.0843 32.1249 9.81378 32.462C9.43506 32.9323 9.18535 33.4983 9.13124 34.0976V34.1059L9.02304 35.0548L8.99807 35.2921L8.98142 35.5293L8.94812 36.0037L8.91483 36.4782C8.90234 36.6363 8.90651 36.7945 8.90234 36.9526C8.89818 37.2689 8.8857 37.5852 8.8857 37.9057L8.91067 38.8587C8.91067 39.0169 8.91899 39.175 8.93564 39.3332L8.96893 39.8076C9.01887 40.4943 9.09379 41.1769 9.19367 41.8552C9.32685 41.2851 9.485 40.7399 9.66396 40.2321C8.96893 34.2891 15.1451 32.8616 15.1451 32.8616C14.0422 33.5441 13.9631 35.1381 12.7812 37.5478C11.774 39.5995 10.4172 40.1156 10.0302 40.2238C9.88453 40.5942 9.75552 40.9355 9.65147 41.2393C9.38928 41.9843 9.33517 42.7833 9.50581 43.5533C9.50581 43.5533 9.50581 43.5616 9.50581 43.5657C9.77632 44.8018 10.1093 46.0254 10.5504 47.2073C10.9874 48.3934 11.4952 49.5504 12.082 50.6658C12.2568 50.9904 12.4357 51.3109 12.623 51.6272C12.5148 50.9571 12.4565 50.312 12.4316 49.6919C9.60569 44.4148 14.8288 40.8273 14.8288 40.8273C14.0547 41.8677 14.5624 43.3785 14.346 46.0545C14.1629 48.3352 13.085 49.3132 12.7687 49.5546C12.7687 49.642 12.7687 49.7294 12.7687 49.8126C12.777 51.2609 13.2223 52.6801 14.0588 53.8621C14.063 53.8662 14.0672 53.8746 14.0713 53.8787C14.7955 54.9067 15.6153 55.8681 16.4727 56.7837C16.6933 57.0084 16.9013 57.2456 17.1302 57.4579L17.8086 58.1113C17.8086 58.1113 17.8169 58.1071 17.8253 58.0946C17.6172 57.7284 17.4299 57.3622 17.2634 57.0001C12.6147 53.2295 16.0357 47.8982 16.0357 47.8982C15.7236 49.1592 16.7765 50.3537 17.6172 52.9049C18.333 55.0773 17.7171 56.3966 17.5215 56.742C17.6588 57.0708 17.792 57.3705 17.9127 57.641C18.2165 58.2986 18.6576 58.8812 19.2278 59.3265C19.2278 59.3265 19.232 59.3307 19.2361 59.3349C20.2183 60.1173 21.238 60.8456 22.32 61.4823C22.9485 61.8527 23.5894 62.2023 24.2428 62.527C23.9723 62.2481 23.7184 61.9651 23.4853 61.6821C19.0322 59.6303 20.6719 54.7028 20.6719 54.7028C20.6803 55.764 21.7582 56.5007 22.9401 58.3568C23.9473 59.9383 23.7267 61.1078 23.6393 61.4241C23.785 61.6155 23.9223 61.7945 24.0513 61.9568C24.4758 62.4895 25.0252 62.914 25.6536 63.1804C25.6536 63.1804 25.6578 63.1804 25.662 63.1804C26.8148 63.6631 27.9967 64.071 29.1995 64.4039H29.212V64.4081C29.5366 64.4997 29.778 64.791 29.7863 65.1281C29.7988 65.7066 29.2661 66.077 28.7625 65.923C27.5015 65.5401 26.2613 65.074 25.0627 64.533C23.8641 63.9878 22.7071 63.351 21.5917 62.6518C20.9217 62.2356 20.2724 61.7778 19.644 61.2992C18.7908 60.65 17.7628 60.2629 16.6933 60.1714C11.1039 62.3189 8.19067 56.6879 8.19067 56.6879C9.12708 57.5869 10.6878 57.2706 13.318 57.8199C15.5571 58.2861 16.3936 59.4764 16.5934 59.8218C17.1302 59.8925 17.6089 59.9342 18.0001 59.9633C17.6463 59.6511 17.3009 59.3265 16.9554 59.0019L16.2646 58.3027C16.0315 58.0738 15.8193 57.82 15.5945 57.5827C14.7247 56.6047 13.9007 55.5809 13.1724 54.4947C13.1557 54.4739 13.1432 54.4489 13.1266 54.4281C12.7687 53.8954 12.2817 53.4667 11.7116 53.1754C11.62 53.1296 11.5243 53.0796 11.4369 53.0297C5.45636 52.805 4.99024 46.4873 4.99024 46.4873C5.49798 47.6818 7.05866 48.0064 9.26026 49.5421L9.24361 49.5504Z" fill="#F4B221"/>
</g>
<defs>
<clipPath id="clip0_105_3849">
<rect width="232.404" height="75" fill="white"/>
</clipPath>
</defs>
</svg>
