<svg width="19" height="25" viewBox="0 0 19 25" fill="none" xmlns="http://www.w3.org/2000/svg">
    <path
        d="M7.9762 23.3109L7.39239 23.7817L7.9762 23.3109ZM9.4 0.25C4.34179 0.25 0.25 4.34179 0.25 9.4H1.75C1.75 5.17021 5.17021 1.75 9.4 1.75V0.25ZM0.25 9.4C0.25 11.932 1.48132 14.8111 2.93853 17.3581C4.41073 19.9313 6.18189 22.2807 7.39239 23.7817L8.56001 22.8401C7.37427 21.3697 5.65733 19.0896 4.2405 16.6132C2.80866 14.1106 1.75 11.5199 1.75 9.4H0.25ZM11.4076 23.7817C12.6181 22.2807 14.3893 19.9313 15.8615 17.3581C17.3187 14.8111 18.55 11.932 18.55 9.4H17.05C17.05 11.5199 15.9913 14.1106 14.5595 16.6132C13.1427 19.0896 11.4257 21.3697 10.24 22.8401L11.4076 23.7817ZM18.55 9.4C18.55 4.34179 14.4582 0.25 9.4 0.25V1.75C13.6298 1.75 17.05 5.17021 17.05 9.4H18.55ZM7.39239 23.7817C8.43635 25.0762 10.3637 25.0762 11.4076 23.7817L10.24 22.8401C9.79643 23.3901 9.00357 23.3901 8.56001 22.8401L7.39239 23.7817ZM9.4 11.65C8.15821 11.65 7.15 10.6418 7.15 9.4H5.65C5.65 11.4702 7.32979 13.15 9.4 13.15V11.65ZM7.15 9.4C7.15 8.15821 8.15821 7.15 9.4 7.15V5.65C7.32979 5.65 5.65 7.32979 5.65 9.4H7.15ZM9.4 7.15C10.6418 7.15 11.65 8.15821 11.65 9.4H13.15C13.15 7.32979 11.4702 5.65 9.4 5.65V7.15ZM11.65 9.4C11.65 10.6418 10.6418 11.65 9.4 11.65V13.15C11.4702 13.15 13.15 11.4702 13.15 9.4H11.65Z"
        fill="#F4B223" />
</svg>
    