<svg width="73" height="72" viewBox="0 0 73 72" fill="none" xmlns="http://www.w3.org/2000/svg">
<g clip-path="url(#clip0_138_2070)">
<path d="M41.8402 72H10.3836C4.6592 72 0 67.3408 0 61.6164V10.3651C0 4.64994 4.6592 0 10.3836 0H46.2123C47.4905 0 48.528 1.03744 48.528 2.31571C48.528 3.59398 47.4905 4.63142 46.2123 4.63142H10.3836C7.20648 4.63142 4.63142 7.20648 4.63142 10.3651V61.6164C4.63142 64.7935 7.21575 67.3686 10.3836 67.3686H41.8402C43.4797 67.3686 45.0359 67.0166 46.4624 66.3219C47.6573 65.7846 48.6947 65.0621 49.621 64.1358L64.1636 49.6117C65.0529 48.7225 65.8124 47.6387 66.3497 46.4809C67.0351 45.0359 67.3964 43.4334 67.3964 41.831V25.7692C67.3964 24.4909 68.4338 23.4535 69.7121 23.4535C70.9903 23.4535 72.0278 24.4909 72.0278 25.7692V41.831C72.0278 44.1096 71.5183 46.3975 70.5457 48.4446C69.7862 50.0934 68.7395 51.594 67.4427 52.8908L52.9 67.4149C51.5755 68.7395 50.0656 69.7862 48.4261 70.5179C46.4346 71.4905 44.2022 72 41.8495 72H41.8402Z" fill="#979797"/>
<path d="M47.4817 70.7216C47.0371 70.7216 46.6018 70.592 46.222 70.3511C45.5643 69.925 45.166 69.1933 45.166 68.4059V47.4627C45.166 46.1844 46.2035 45.147 47.4817 45.147H68.4528C69.2401 45.147 69.9811 45.5453 70.4072 46.2122C70.8333 46.8791 70.8889 47.7128 70.5554 48.4353C69.7866 50.1026 68.7399 51.6032 67.4431 52.9L52.9005 67.4241C51.5759 68.7487 50.0661 69.7954 48.4265 70.5271C48.1209 70.6661 47.8059 70.7309 47.4817 70.7309V70.7216ZM49.7974 49.7784V63.969L64.0159 49.7784H49.7974Z" fill="#979797"/>
<path d="M20.9067 51.8902C20.2953 51.8902 19.7025 51.6494 19.2671 51.214C18.8133 50.7601 18.5632 50.1302 18.591 49.4818L18.9337 41.2101C18.9615 40.6266 19.2023 40.0801 19.6099 39.6632L53.1506 6.12253C56.2444 3.03801 61.2648 3.02875 64.3586 6.12253C67.4524 9.20705 67.4524 14.2368 64.3586 17.3306L30.8179 50.8713C30.4103 51.2788 29.8546 51.5197 29.271 51.5475L20.9993 51.8902C20.9993 51.8902 20.9345 51.8902 20.9067 51.8902ZM23.5188 42.3032L23.3243 47.1569L28.178 46.9531L61.0796 14.0515C62.3671 12.764 62.3671 10.6798 61.0796 9.39231C59.8013 8.11404 57.7079 8.11404 56.4204 9.39231L23.5281 42.3032H23.5188Z" fill="#979797"/>
</g>
<defs>
<clipPath id="clip0_138_2070">
<rect width="72.0185" height="72" fill="white"/>
</clipPath>
</defs>
</svg>
