<svg width="30" height="30" viewBox="0 0 30 30" fill="none" xmlns="http://www.w3.org/2000/svg">
    <g clip-path="url(#clip0_81_503)">
        <path
            d="M1.09287 6.69476C0.764254 6.69476 0.447097 6.52663 0.267502 6.22094C2.02805e-05 5.76622 0.152867 5.18158 0.607586 4.9141L6.84373 1.26106C7.69203 0.76813 8.55562 0.363086 9.4192 0.0573922C9.91595 -0.118382 10.4624 0.141458 10.6382 0.63821C10.8139 1.13496 10.5541 1.68139 10.0573 1.85716C9.30839 2.12082 8.5518 2.47619 7.81049 2.90798L1.57434 6.56484C1.4215 6.65273 1.25718 6.69476 1.09287 6.69476Z"
            fill="black" />
        <path
            d="M24.257 29.8586C24.0927 29.8586 23.9246 29.8166 23.7756 29.7287C23.3208 29.4612 23.168 28.8766 23.4355 28.4219L27.0923 22.1857C27.5203 21.4559 27.8757 20.6993 28.1508 19.9389C28.3304 19.4421 28.8806 19.1861 29.3736 19.3657C29.8703 19.5453 30.1263 20.0956 29.9467 20.5885C29.6296 21.4559 29.2245 22.3157 28.7393 23.1487L25.0824 29.3848C24.9066 29.6867 24.5856 29.8586 24.257 29.8586Z"
            fill="black" />
        <path
            d="M15.514 30.0001C14.1001 30.0001 12.7513 29.446 11.731 28.4258L1.57433 18.2691C0.389768 17.0807 -0.168122 15.4491 0.0458631 13.7869C0.259849 12.1246 1.21132 10.6841 2.65954 9.83958L9.52236 5.82354C13.7256 3.3627 19.0676 4.05051 22.5105 7.49339C25.9534 10.9363 26.6412 16.2783 24.1804 20.4815L20.1643 27.3444C19.316 28.7926 17.8793 29.7441 16.2171 29.958C15.984 29.9886 15.7509 30.0039 15.5178 30.0039L15.514 30.0001ZM14.9255 6.26297C13.4008 6.26297 11.8647 6.65655 10.4815 7.47046L3.61866 11.4865C2.68629 12.0329 2.0749 12.9577 1.93734 14.0314C1.79978 15.1013 2.15897 16.1522 2.9232 16.9164L13.0837 27.0769C13.8479 27.8411 14.8987 28.2003 15.9687 28.0627C17.0386 27.9252 17.9671 27.31 18.5136 26.3814L22.5296 19.5186C24.551 16.0643 23.9855 11.6737 21.1578 8.84608C19.4612 7.14948 17.2067 6.26679 14.9293 6.26679L14.9255 6.26297Z"
            fill="black" />
        <path
            d="M7.32863 28.7008C5.78488 28.7008 4.24113 28.1124 3.06421 26.9354C1.9255 25.7967 1.29883 24.2835 1.29883 22.671C1.29883 21.0585 1.9255 19.5453 3.06421 18.4066C3.43868 18.0321 4.04243 18.0321 4.4169 18.4066L11.5969 25.5866C11.9714 25.961 11.9714 26.5648 11.5969 26.9393C10.42 28.1162 8.87621 28.7046 7.33245 28.7046L7.32863 28.7008ZM3.81698 20.5121C3.41958 21.154 3.20559 21.8953 3.20559 22.671C3.20559 23.7715 3.63356 24.807 4.41308 25.5827C5.7887 26.9584 7.89799 27.1571 9.48759 26.1788L3.81698 20.5082V20.5121Z"
            fill="black" />
        <path
            d="M21.8342 9.12123C21.5896 9.12123 21.345 9.02952 21.1578 8.84228C20.7833 8.46781 20.7833 7.86406 21.1578 7.48959L23.099 5.54843C23.4734 5.17396 24.0772 5.17396 24.4517 5.54843C24.8261 5.92291 24.8261 6.52665 24.4517 6.90113L22.5105 8.84228C22.3233 9.02952 22.0787 9.12123 21.8342 9.12123Z"
            fill="black" />
    </g>
    <defs>
        <clipPath id="clip0_81_503">
            <rect width="30.0038" height="30" fill="white" />
        </clipPath>
    </defs>
</svg>
    