<svg width="74" height="74" viewBox="0 0 74 74" fill="none" xmlns="http://www.w3.org/2000/svg">
<path d="M35.2 57.4999C34.5 57.4999 33.9 57.1999 33.4 56.7999L17.4 40.7999C16.7 40.0999 16.5 39.0999 16.8 38.1999C24 18.1999 44.2 -1.70012 67.3 0.999878C70.4 1.39988 72.9 3.89988 73.3 6.99988C75.9 30.0999 56 50.1999 36 57.2999C35.8 57.3999 35.5 57.4999 35.2 57.4999ZM22.1 38.3999L35.8 52.0999C51.2 45.9999 70.7 28.6999 68.3 7.49988C68.2 6.69988 67.5 5.99988 66.7 5.89988C45.5 3.49988 28.3 22.9999 22.1 38.3999Z" fill="#F4B223"/>
<path d="M9.59971 71.2994C7.89971 71.2994 6.09971 70.5994 4.89971 69.2994C3.09971 67.4994 2.49971 64.9994 3.19971 62.5994V62.4994C4.09971 59.4994 5.69971 55.9994 7.79971 52.3994C8.89971 50.5994 10.6997 49.3994 12.7997 49.0994C14.8997 48.7994 16.9997 49.4994 18.4997 50.9994L23.1997 55.6994C24.6997 57.1994 25.3997 59.2994 25.0997 61.2994C24.7997 63.3994 23.5997 65.1994 21.7997 66.2994C18.0997 68.3994 14.6997 69.9994 11.6997 70.9994H11.5997C10.8997 71.1994 10.2997 71.2994 9.59971 71.2994ZM13.6997 53.9994C13.5997 53.9994 13.4997 53.9994 13.4997 53.9994C12.8997 54.0994 12.4997 54.3994 12.1997 54.8994C10.2997 58.1994 8.79971 61.3994 7.99971 63.9994C7.69971 64.8994 8.19971 65.4994 8.39971 65.6994C8.59971 65.8994 9.19971 66.3994 10.0997 66.0994C12.7997 65.2994 15.9997 63.7994 19.2997 61.8994C19.7997 61.5994 20.0997 61.0994 20.1997 60.5994C20.1997 60.2994 20.1997 59.6994 19.6997 59.0994L14.9997 54.4994C14.5997 54.0994 14.0997 53.9994 13.6997 53.9994Z" fill="#F4B223"/>
<path d="M19.1997 41.4996H6.69967C4.59967 41.4996 2.69967 40.3996 1.59967 38.6996C0.499669 36.9996 0.399669 34.7996 1.19967 32.8996C4.09967 26.7996 11.7997 16.5996 30.5997 17.5996C31.9997 17.6996 32.9997 18.8996 32.9997 20.1996C32.8997 21.5996 31.7997 22.6996 30.3997 22.5996C15.3997 21.7996 8.69967 28.8996 5.79967 34.9996C5.59967 35.3996 5.79967 35.7996 5.89967 35.8996C5.99967 36.0996 6.29967 36.3996 6.79967 36.3996H19.2997C20.6997 36.3996 21.7997 37.4996 21.7997 38.8996C21.7997 40.2996 20.5997 41.4996 19.1997 41.4996Z" fill="#F4B223"/>
<path d="M38.6992 73.6003C37.5992 73.6003 36.4992 73.3003 35.4992 72.7003C33.6992 71.6003 32.6992 69.7003 32.6992 67.6003V55.0003C32.6992 53.6003 33.7992 52.5003 35.1992 52.5003C36.5992 52.5003 37.6992 53.6003 37.6992 55.0003V67.5003C37.6992 68.0003 38.0992 68.3003 38.1992 68.4003C38.3992 68.5003 38.6992 68.7003 39.0992 68.5003C45.1992 65.6003 52.3992 58.9003 51.4992 43.9003C51.3992 42.5003 52.4992 41.3003 53.8992 41.3003C55.2992 41.2003 56.4992 42.3003 56.4992 43.7003C57.4992 62.4003 47.3992 70.1003 41.1992 73.1003C40.4992 73.4003 39.5992 73.6003 38.6992 73.6003Z" fill="#F4B223"/>
<path d="M48.3996 34.6C43.5996 34.6 39.5996 30.7 39.5996 25.8C39.5996 21 43.4996 17 48.3996 17C53.1996 17 57.1996 20.9 57.1996 25.8C57.1996 30.7 53.1996 34.6 48.3996 34.6ZM48.3996 22.1C46.2996 22.1 44.5996 23.8 44.5996 25.9C44.5996 28 46.2996 29.7 48.3996 29.7C50.4996 29.7 52.1996 28 52.1996 25.9C52.1996 23.8 50.4996 22.1 48.3996 22.1Z" fill="#F4B223"/>
</svg>
