<svg width="48" height="48" viewBox="0 0 48 48" fill="none" xmlns="http://www.w3.org/2000/svg">
<circle cx="24" cy="24" r="23.5" stroke="white"/>
<path fill-rule="evenodd" clip-rule="evenodd" d="M29.1527 27.0943H28.0686L27.6844 26.7238C29.0292 25.1595 29.8388 23.1286 29.8388 20.9194C29.8388 15.9931 25.8456 12 20.9194 12C15.9931 12 12 15.9931 12 20.9194C12 25.8456 15.9931 29.8388 20.9194 29.8388C23.1286 29.8388 25.1595 29.0292 26.7238 27.6844L27.0943 28.0686V29.1527L33.9554 36L36 33.9554L29.1527 27.0943ZM20.9194 27.0943C17.5026 27.0943 14.7444 24.3362 14.7444 20.9194C14.7444 17.5026 17.5026 14.7444 20.9194 14.7444C24.3362 14.7444 27.0944 17.5026 27.0944 20.9194C27.0944 24.3362 24.3362 27.0943 20.9194 27.0943Z" fill="white"/>
</svg>
