<svg width="40" height="40" viewBox="0 0 40 40" fill="none" xmlns="http://www.w3.org/2000/svg">
<path fill-rule="evenodd" clip-rule="evenodd" d="M30 26.7997C28.7333 26.7997 27.6 27.2997 26.7333 28.083L14.85 21.1663C14.9333 20.783 15 20.3997 15 19.9997C15 19.5997 14.9333 19.2163 14.85 18.833L26.6 11.983C27.5 12.8163 28.6833 13.333 30 13.333C32.7667 13.333 35 11.0997 35 8.33301C35 5.56634 32.7667 3.33301 30 3.33301C27.2333 3.33301 25 5.56634 25 8.33301C25 8.73301 25.0667 9.11634 25.15 9.49967L13.4 16.3497C12.5 15.5163 11.3167 14.9997 10 14.9997C7.23333 14.9997 5 17.233 5 19.9997C5 22.7663 7.23333 24.9997 10 24.9997C11.3167 24.9997 12.5 24.483 13.4 23.6497L25.2667 30.583C25.1833 30.933 25.1333 31.2997 25.1333 31.6663C25.1333 34.3497 27.3167 36.533 30 36.533C32.6833 36.533 34.8667 34.3497 34.8667 31.6663C34.8667 28.983 32.6833 26.7997 30 26.7997Z" fill="#F4B223"/>
</svg>
