<svg width="30" height="28" viewBox="0 0 30 28" fill="none" xmlns="http://www.w3.org/2000/svg">
    <g clip-path="url(#clip0_86_1458)">
        <path
            d="M7.3824 27.9999C6.77351 27.9999 6.17357 27.8119 5.6587 27.4358C4.74537 26.7732 4.29766 25.6718 4.49017 24.5615L5.53782 18.4457C5.57812 18.2174 5.502 17.9846 5.33635 17.8234L0.890556 13.494C0.0846715 12.706 -0.201865 11.5509 0.147351 10.4809C0.496568 9.40638 1.40543 8.64079 2.52023 8.47961L8.65838 7.58866C8.88672 7.55732 9.08371 7.40957 9.18669 7.20363L11.9312 1.64303C12.4326 0.631193 13.44 0.00439453 14.5682 0.00439453C15.6964 0.00439453 16.7038 0.631193 17.2052 1.64303L19.9497 7.20363C20.0527 7.40957 20.2497 7.55284 20.478 7.58866L26.6162 8.47961C27.731 8.64079 28.6398 9.41085 28.9891 10.4809C29.3383 11.5554 29.0517 12.706 28.2458 13.494L23.8045 17.8234C23.6389 17.9846 23.5628 18.2174 23.6031 18.4457L24.6507 24.557C24.8432 25.6673 24.391 26.7687 23.4822 27.4313C22.5688 28.0939 21.3824 28.179 20.384 27.6552L14.895 24.7674C14.6891 24.66 14.4473 24.66 14.2414 24.7674L8.7524 27.6552C8.31812 27.8835 7.84802 27.9954 7.3824 27.9954V27.9999ZM14.5682 2.23848C14.4384 2.23848 14.1115 2.2743 13.9369 2.628L11.1924 8.1886C10.7626 9.05716 9.93437 9.6571 8.97626 9.79589L2.83811 10.6868C2.4486 10.745 2.31428 11.0405 2.26951 11.1659C2.22922 11.2913 2.16654 11.6091 2.4486 11.8867L6.88992 16.2161C7.58387 16.8921 7.89727 17.8637 7.73609 18.8173L6.68845 24.9331C6.62129 25.3226 6.86305 25.542 6.96603 25.6181C7.07348 25.6942 7.35554 25.8554 7.70475 25.6718L13.1937 22.7841C14.0489 22.3319 15.0741 22.3319 15.9293 22.7841L21.4182 25.6718C21.7674 25.8554 22.054 25.6942 22.1569 25.6181C22.2644 25.542 22.5017 25.3181 22.4345 24.9331L21.3869 18.8173C21.2257 17.8637 21.5391 16.8921 22.2331 16.2161L26.6744 11.8867C26.9564 11.6136 26.8938 11.2913 26.8535 11.1659C26.8132 11.0405 26.6744 10.745 26.2849 10.6868L20.1467 9.79589C19.1886 9.6571 18.3603 9.05716 17.9305 8.1886L15.186 2.62352C15.0114 2.26982 14.6891 2.23401 14.5548 2.23401L14.5682 2.23848Z"
            fill="black" />
    </g>
    <defs>
        <clipPath id="clip0_86_1458">
            <rect width="29.1417" height="28" fill="white" />
        </clipPath>
    </defs>
</svg>
    