<svg width="16" height="15" viewBox="0 0 16 15" fill="none" xmlns="http://www.w3.org/2000/svg">
<path fill-rule="evenodd" clip-rule="evenodd" d="M7.74636 12.1708C8.06415 11.979 8.46204 11.979 8.77983 12.1708L11.4383 13.7754C12.1956 14.2325 13.1299 13.5535 12.9289 12.692L12.2234 9.6678C12.139 9.30631 12.2619 8.92784 12.5425 8.68479L14.8928 6.64873C15.5613 6.06952 15.2039 4.97126 14.3225 4.89648L11.2303 4.63414C10.8607 4.60278 10.5388 4.36944 10.3941 4.02794L9.18381 1.17237C8.83922 0.359342 7.68696 0.359342 7.34238 1.17237L6.13209 4.02794C5.98736 4.36944 5.66549 4.60278 5.29591 4.63414L2.20367 4.89648C1.32224 4.97126 0.964837 6.06952 1.63344 6.64873L3.98373 8.68479C4.26429 8.92784 4.38714 9.30631 4.30281 9.6678L3.5973 12.692C3.39634 13.5535 4.33057 14.2325 5.08788 13.7754L7.74636 12.1708Z" fill="#F23827" stroke="#F23827"/>
</svg>
