<svg width="21" height="19" viewBox="0 0 21 19" fill="none" xmlns="http://www.w3.org/2000/svg">
<path fill-rule="evenodd" clip-rule="evenodd" d="M9.59811 16.9122C10.2337 16.5286 11.0295 16.5286 11.665 16.9122L14.3799 18.5508C15.8945 19.4649 17.763 18.107 17.3611 16.3841L16.6406 13.2956C16.4719 12.5726 16.7176 11.8157 17.2787 11.3296L19.6804 9.24903C21.0176 8.09062 20.3027 5.8941 18.5399 5.74454L15.3828 5.47669C14.6436 5.41398 13.9999 4.94731 13.7104 4.26431L12.473 1.34474C11.7838 -0.281315 9.47932 -0.281317 8.79014 1.34474L7.55274 4.26431C7.26326 4.94731 6.61953 5.41398 5.88038 5.47669L2.72326 5.74454C0.960408 5.8941 0.245593 8.09062 1.58279 9.24903L3.98443 11.3296C4.54556 11.8157 4.79125 12.5726 4.62259 13.2956L3.90209 16.3841C3.50017 18.107 5.36863 19.4649 6.88326 18.5508L9.59811 16.9122Z" fill="black"/>
</svg>
