<svg width="42" height="40" viewBox="0 0 42 40" fill="none" xmlns="http://www.w3.org/2000/svg">
<g clip-path="url(#clip0_105_4499)">
<path d="M10.5468 40.0004C9.677 40.0004 8.81995 39.7318 8.08442 39.1946C6.77966 38.248 6.14007 36.6746 6.41509 35.0884L7.91173 26.3516C7.96929 26.0254 7.86056 25.6928 7.62392 25.4625L1.27278 19.2777C0.121517 18.152 -0.287821 16.5019 0.21106 14.9733C0.709941 13.4382 2.00831 12.3445 3.60089 12.1143L12.3697 10.8415C12.6959 10.7967 12.9773 10.5857 13.1244 10.2915L17.0451 2.34774C17.7614 0.902263 19.2005 0.00683594 20.8123 0.00683594C22.424 0.00683594 23.8631 0.902263 24.5795 2.34774L28.5002 10.2915C28.6473 10.5857 28.9287 10.7903 29.2549 10.8415L38.0237 12.1143C39.6162 12.3445 40.9146 13.4446 41.4135 14.9733C41.9124 16.5083 41.503 18.152 40.3518 19.2777L34.007 25.4625C33.7704 25.6928 33.6617 26.0254 33.7192 26.3516L35.2159 35.082C35.4909 36.6682 34.8449 38.2416 33.5465 39.1882C32.2418 40.1348 30.5468 40.2563 29.1206 39.508L21.2792 35.3826C20.985 35.2291 20.6396 35.2291 20.3454 35.3826L12.504 39.508C11.8836 39.8341 11.212 39.994 10.5468 39.994V40.0004Z" fill="#F4B223"/>
</g>
<defs>
<clipPath id="clip0_105_4499">
<rect width="41.631" height="40" fill="white"/>
</clipPath>
</defs>
</svg>
